<svg xmlns="http://www.w3.org/2000/svg" viewBox="0 0 1000 800" width="1000" height="800" role="img">
<defs><linearGradient id="sky" x1="0" y1="0" x2="0" y2="1"><stop offset="0" stop-color="#dbeafe"/><stop offset="1" stop-color="#fffdf7"/></linearGradient></defs>
<rect width="1000" height="800" fill="url(#sky)"/>
<circle cx="679" cy="118" r="51" fill="#facc15" opacity=".55"/>
<rect x="38" y="302" width="236" height="498" rx="6" fill="#e7e5e4"/><rect x="50.5" y="314.5" width="53.4" height="74.5" rx="3" fill="rgba(186,230,253,0.5509496212005616)" stroke="rgba(17,24,39,.14)" stroke-width="1.2"/><path d="M56.9 380.0L89.0 321.9h8.5L65.5 381.5z" fill="rgba(255,255,255,.5)"/><rect x="50.5" y="414.1" width="53.4" height="74.5" rx="3" fill="rgba(186,230,253,0.7183880329132081)" stroke="rgba(17,24,39,.14)" stroke-width="1.2"/><path d="M56.9 479.6L89.0 421.5h8.5L65.5 481.1z" fill="rgba(255,255,255,.5)"/><rect x="50.5" y="513.7" width="53.4" height="74.5" rx="3" fill="rgba(186,230,253,0.7627579212188721)" stroke="rgba(17,24,39,.14)" stroke-width="1.2"/><path d="M56.9 579.3L89.0 521.2h8.5L65.5 580.7z" fill="rgba(255,255,255,.5)"/><rect x="50.5" y="613.3" width="53.4" height="74.5" rx="3" fill="rgba(186,230,253,0.7100727558135986)" stroke="rgba(17,24,39,.14)" stroke-width="1.2"/><path d="M56.9 678.9L89.0 620.8h8.5L65.5 680.4z" fill="rgba(255,255,255,.5)"/><rect x="50.5" y="713.0" width="53.4" height="74.5" rx="3" fill="rgba(186,230,253,0.5681694507598878)" stroke="rgba(17,24,39,.14)" stroke-width="1.2"/><path d="M56.9 778.5L89.0 720.4h8.5L65.5 780.0z" fill="rgba(255,255,255,.5)"/><rect x="129.1" y="314.5" width="53.4" height="74.5" rx="3" fill="rgba(186,230,253,0.8773508071899414)" stroke="rgba(17,24,39,.14)" stroke-width="1.2"/><path d="M135.5 380.0L167.6 321.9h8.5L144.1 381.5z" fill="rgba(255,255,255,.5)"/><rect x="129.1" y="414.1" width="53.4" height="74.5" rx="3" fill="rgba(186,230,253,0.6710123062133789)" stroke="rgba(17,24,39,.14)" stroke-width="1.2"/><path d="M135.5 479.6L167.6 421.5h8.5L144.1 481.1z" fill="rgba(255,255,255,.5)"/><rect x="129.1" y="513.7" width="53.4" height="74.5" rx="3" fill="rgba(186,230,253,0.7164072036743164)" stroke="rgba(17,24,39,.14)" stroke-width="1.2"/><rect x="129.1" y="613.3" width="53.4" height="74.5" rx="3" fill="rgba(186,230,253,0.7313089370727539)" stroke="rgba(17,24,39,.14)" stroke-width="1.2"/><rect x="129.1" y="713.0" width="53.4" height="74.5" rx="3" fill="rgba(186,230,253,0.5819284439086915)" stroke="rgba(17,24,39,.14)" stroke-width="1.2"/><path d="M135.5 778.5L167.6 720.4h8.5L144.1 780.0z" fill="rgba(255,255,255,.5)"/><rect x="207.7" y="314.5" width="53.4" height="74.5" rx="3" fill="rgba(186,230,253,0.8753409862518311)" stroke="rgba(17,24,39,.14)" stroke-width="1.2"/><rect x="207.7" y="414.1" width="53.4" height="74.5" rx="3" fill="rgba(186,230,253,0.893550443649292)" stroke="rgba(17,24,39,.14)" stroke-width="1.2"/><path d="M214.1 479.6L246.1 421.5h8.5L222.6 481.1z" fill="rgba(255,255,255,.5)"/><rect x="207.7" y="513.7" width="53.4" height="74.5" rx="3" fill="rgba(186,230,253,0.6451919555664063)" stroke="rgba(17,24,39,.14)" stroke-width="1.2"/><rect x="207.7" y="613.3" width="53.4" height="74.5" rx="3" fill="rgba(186,230,253,0.8936933040618897)" stroke="rgba(17,24,39,.14)" stroke-width="1.2"/><path d="M214.1 678.9L246.1 620.8h8.5L222.6 680.4z" fill="rgba(255,255,255,.5)"/><rect x="207.7" y="713.0" width="53.4" height="74.5" rx="3" fill="rgba(186,230,253,0.6173211574554444)" stroke="rgba(17,24,39,.14)" stroke-width="1.2"/><path d="M214.1 778.5L246.1 720.4h8.5L222.6 780.0z" fill="rgba(255,255,255,.5)"/><rect x="290" y="349" width="302" height="451" rx="6" fill="#d4d4d8"/><rect x="301.6" y="360.8" width="51.3" height="66.1" rx="3" fill="rgba(186,230,253,0.8076647758483888)" stroke="rgba(17,24,39,.14)" stroke-width="1.2"/><path d="M307.8 419.0L338.6 367.4h8.2L316.0 420.3z" fill="rgba(255,255,255,.5)"/><rect x="301.6" y="451.1" width="51.3" height="66.1" rx="3" fill="rgba(186,230,253,0.7643794059753418)" stroke="rgba(17,24,39,.14)" stroke-width="1.2"/><path d="M307.8 509.3L338.6 457.7h8.2L316.0 510.6z" fill="rgba(255,255,255,.5)"/><rect x="301.6" y="541.3" width="51.3" height="66.1" rx="3" fill="rgba(186,230,253,0.63699369430542)" stroke="rgba(17,24,39,.14)" stroke-width="1.2"/><path d="M307.8 599.5L338.6 547.9h8.2L316.0 600.8z" fill="rgba(255,255,255,.5)"/><rect x="301.6" y="631.6" width="51.3" height="66.1" rx="3" fill="rgba(186,230,253,0.8621239185333253)" stroke="rgba(17,24,39,.14)" stroke-width="1.2"/><rect x="301.6" y="721.8" width="51.3" height="66.1" rx="3" fill="rgba(186,230,253,0.6485806107521057)" stroke="rgba(17,24,39,.14)" stroke-width="1.2"/><rect x="377.1" y="360.8" width="51.3" height="66.1" rx="3" fill="rgba(186,230,253,0.916802990436554)" stroke="rgba(17,24,39,.14)" stroke-width="1.2"/><path d="M383.2 419.0L414.0 367.4h8.2L391.4 420.3z" fill="rgba(255,255,255,.5)"/><rect x="377.1" y="451.1" width="51.3" height="66.1" rx="3" fill="rgba(186,230,253,0.6229995250701905)" stroke="rgba(17,24,39,.14)" stroke-width="1.2"/><path d="M383.2 509.3L414.0 457.7h8.2L391.4 510.6z" fill="rgba(255,255,255,.5)"/><rect x="377.1" y="541.3" width="51.3" height="66.1" rx="3" fill="rgba(186,230,253,0.7428582191467286)" stroke="rgba(17,24,39,.14)" stroke-width="1.2"/><rect x="377.1" y="631.6" width="51.3" height="66.1" rx="3" fill="rgba(186,230,253,0.7009995460510254)" stroke="rgba(17,24,39,.14)" stroke-width="1.2"/><path d="M383.2 689.8L414.0 638.2h8.2L391.4 691.1z" fill="rgba(255,255,255,.5)"/><rect x="377.1" y="721.8" width="51.3" height="66.1" rx="3" fill="rgba(186,230,253,0.7695107460021973)" stroke="rgba(17,24,39,.14)" stroke-width="1.2"/><path d="M383.2 780.0L414.0 728.4h8.2L391.4 781.3z" fill="rgba(255,255,255,.5)"/><rect x="452.5" y="360.8" width="51.3" height="66.1" rx="3" fill="rgba(186,230,253,0.8487336158752442)" stroke="rgba(17,24,39,.14)" stroke-width="1.2"/><rect x="452.5" y="451.1" width="51.3" height="66.1" rx="3" fill="rgba(186,230,253,0.7495568275451661)" stroke="rgba(17,24,39,.14)" stroke-width="1.2"/><path d="M458.7 509.3L489.4 457.7h8.2L466.9 510.6z" fill="rgba(255,255,255,.5)"/><rect x="452.5" y="541.3" width="51.3" height="66.1" rx="3" fill="rgba(186,230,253,0.6902909278869629)" stroke="rgba(17,24,39,.14)" stroke-width="1.2"/><rect x="452.5" y="631.6" width="51.3" height="66.1" rx="3" fill="rgba(186,230,253,0.6685433506965638)" stroke="rgba(17,24,39,.14)" stroke-width="1.2"/><path d="M458.7 689.8L489.4 638.2h8.2L466.9 691.1z" fill="rgba(255,255,255,.5)"/><rect x="452.5" y="721.8" width="51.3" height="66.1" rx="3" fill="rgba(186,230,253,0.6802002429962158)" stroke="rgba(17,24,39,.14)" stroke-width="1.2"/><path d="M458.7 780.0L489.4 728.4h8.2L466.9 781.3z" fill="rgba(255,255,255,.5)"/><rect x="527.9" y="360.8" width="51.3" height="66.1" rx="3" fill="rgba(186,230,253,0.6876102924346924)" stroke="rgba(17,24,39,.14)" stroke-width="1.2"/><path d="M534.1 419.0L564.9 367.4h8.2L542.3 420.3z" fill="rgba(255,255,255,.5)"/><rect x="527.9" y="451.1" width="51.3" height="66.1" rx="3" fill="rgba(186,230,253,0.8494545459747316)" stroke="rgba(17,24,39,.14)" stroke-width="1.2"/><path d="M534.1 509.3L564.9 457.7h8.2L542.3 510.6z" fill="rgba(255,255,255,.5)"/><rect x="527.9" y="541.3" width="51.3" height="66.1" rx="3" fill="rgba(186,230,253,0.8409527301788331)" stroke="rgba(17,24,39,.14)" stroke-width="1.2"/><rect x="527.9" y="631.6" width="51.3" height="66.1" rx="3" fill="rgba(186,230,253,0.8226761341094971)" stroke="rgba(17,24,39,.14)" stroke-width="1.2"/><rect x="527.9" y="721.8" width="51.3" height="66.1" rx="3" fill="rgba(186,230,253,0.8171101093292237)" stroke="rgba(17,24,39,.14)" stroke-width="1.2"/><rect x="605" y="327" width="375" height="473" rx="6" fill="#dcdcdf"/><rect x="619.8" y="341.9" width="63.8" height="64.6" rx="3" fill="rgba(186,230,253,0.8477165699005127)" stroke="rgba(17,24,39,.14)" stroke-width="1.2"/><path d="M627.5 398.8L665.7 348.4h10.2L637.7 400.1z" fill="rgba(255,255,255,.5)"/><rect x="619.8" y="436.6" width="63.8" height="64.6" rx="3" fill="rgba(186,230,253,0.7404964923858643)" stroke="rgba(17,24,39,.14)" stroke-width="1.2"/><path d="M627.5 493.4L665.7 443.0h10.2L637.7 494.7z" fill="rgba(255,255,255,.5)"/><rect x="619.8" y="531.2" width="63.8" height="64.6" rx="3" fill="rgba(186,230,253,0.8880524158477784)" stroke="rgba(17,24,39,.14)" stroke-width="1.2"/><rect x="619.8" y="625.8" width="63.8" height="64.6" rx="3" fill="rgba(186,230,253,0.8761509537696839)" stroke="rgba(17,24,39,.14)" stroke-width="1.2"/><rect x="619.8" y="720.4" width="63.8" height="64.6" rx="3" fill="rgba(186,230,253,0.6448921322822572)" stroke="rgba(17,24,39,.14)" stroke-width="1.2"/><path d="M627.5 777.2L665.7 726.9h10.2L637.7 778.5z" fill="rgba(255,255,255,.5)"/><rect x="713.6" y="341.9" width="63.8" height="64.6" rx="3" fill="rgba(186,230,253,0.6685412406921387)" stroke="rgba(17,24,39,.14)" stroke-width="1.2"/><path d="M721.3 398.8L759.5 348.4h10.2L731.5 400.1z" fill="rgba(255,255,255,.5)"/><rect x="713.6" y="436.6" width="63.8" height="64.6" rx="3" fill="rgba(186,230,253,0.5501582145690919)" stroke="rgba(17,24,39,.14)" stroke-width="1.2"/><path d="M721.3 493.4L759.5 443.0h10.2L731.5 494.7z" fill="rgba(255,255,255,.5)"/><rect x="713.6" y="531.2" width="63.8" height="64.6" rx="3" fill="rgba(186,230,253,0.8036253213882447)" stroke="rgba(17,24,39,.14)" stroke-width="1.2"/><path d="M721.3 588.0L759.5 537.6h10.2L731.5 589.3z" fill="rgba(255,255,255,.5)"/><rect x="713.6" y="625.8" width="63.8" height="64.6" rx="3" fill="rgba(186,230,253,0.5695553779602052)" stroke="rgba(17,24,39,.14)" stroke-width="1.2"/><rect x="713.6" y="720.4" width="63.8" height="64.6" rx="3" fill="rgba(186,230,253,0.6179171085357666)" stroke="rgba(17,24,39,.14)" stroke-width="1.2"/><path d="M721.3 777.2L759.5 726.9h10.2L731.5 778.5z" fill="rgba(255,255,255,.5)"/><rect x="807.4" y="341.9" width="63.8" height="64.6" rx="3" fill="rgba(186,230,253,0.6775150299072266)" stroke="rgba(17,24,39,.14)" stroke-width="1.2"/><path d="M815.1 398.8L853.3 348.4h10.2L825.3 400.1z" fill="rgba(255,255,255,.5)"/><rect x="807.4" y="436.6" width="63.8" height="64.6" rx="3" fill="rgba(186,230,253,0.8875720977783204)" stroke="rgba(17,24,39,.14)" stroke-width="1.2"/><path d="M815.1 493.4L853.3 443.0h10.2L825.3 494.7z" fill="rgba(255,255,255,.5)"/><rect x="807.4" y="531.2" width="63.8" height="64.6" rx="3" fill="rgba(186,230,253,0.8334079742431642)" stroke="rgba(17,24,39,.14)" stroke-width="1.2"/><rect x="807.4" y="625.8" width="63.8" height="64.6" rx="3" fill="rgba(186,230,253,0.7797687530517579)" stroke="rgba(17,24,39,.14)" stroke-width="1.2"/><path d="M815.1 682.6L853.3 632.2h10.2L825.3 683.9z" fill="rgba(255,255,255,.5)"/><rect x="807.4" y="720.4" width="63.8" height="64.6" rx="3" fill="rgba(186,230,253,0.6749942779541016)" stroke="rgba(17,24,39,.14)" stroke-width="1.2"/><rect x="901.2" y="341.9" width="63.8" height="64.6" rx="3" fill="rgba(186,230,253,0.8447681546211243)" stroke="rgba(17,24,39,.14)" stroke-width="1.2"/><path d="M908.9 398.8L947.1 348.4h10.2L919.1 400.1z" fill="rgba(255,255,255,.5)"/><rect x="901.2" y="436.6" width="63.8" height="64.6" rx="3" fill="rgba(186,230,253,0.6079745769500733)" stroke="rgba(17,24,39,.14)" stroke-width="1.2"/><path d="M908.9 493.4L947.1 443.0h10.2L919.1 494.7z" fill="rgba(255,255,255,.5)"/><rect x="901.2" y="531.2" width="63.8" height="64.6" rx="3" fill="rgba(186,230,253,0.6716839790344239)" stroke="rgba(17,24,39,.14)" stroke-width="1.2"/><path d="M908.9 588.0L947.1 537.6h10.2L919.1 589.3z" fill="rgba(255,255,255,.5)"/><rect x="901.2" y="625.8" width="63.8" height="64.6" rx="3" fill="rgba(186,230,253,0.7044621467590333)" stroke="rgba(17,24,39,.14)" stroke-width="1.2"/><rect x="901.2" y="720.4" width="63.8" height="64.6" rx="3" fill="rgba(186,230,253,0.6926541328430176)" stroke="rgba(17,24,39,.14)" stroke-width="1.2"/><path d="M908.9 777.2L947.1 726.9h10.2L919.1 778.5z" fill="rgba(255,255,255,.5)"/>
<path d="M360 112.00000000000001L620 112.00000000000001L620 800 L360 800Z" fill="rgba(255,255,255,.28)"/><rect x="340" y="368" width="300" height="10" rx="5" fill="#facc15"/><rect x="460" y="368" width="9" height="240" rx="4.5" fill="#111827" opacity=".75"/>


</svg>