<svg xmlns="http://www.w3.org/2000/svg" viewBox="0 0 800 600" width="800" height="600" role="img">
<defs><linearGradient id="sky" x1="0" y1="0" x2="0" y2="1"><stop offset="0" stop-color="#dbeafe"/><stop offset="1" stop-color="#fffdf7"/></linearGradient></defs>
<rect width="800" height="600" fill="url(#sky)"/>
<circle cx="661" cy="90" r="49" fill="#facc15" opacity=".55"/>
<rect x="43" y="168" width="163" height="432" rx="6" fill="#e7e5e4"/><rect x="51.6" y="177.1" width="37.1" height="54.5" rx="3" fill="rgba(186,230,253,0.824459993839264)" stroke="rgba(17,24,39,.14)" stroke-width="1.2"/><rect x="51.6" y="249.0" width="37.1" height="54.5" rx="3" fill="rgba(186,230,253,0.7154370307922364)" stroke="rgba(17,24,39,.14)" stroke-width="1.2"/><path d="M56.0 297.0L78.2 254.5h5.9L61.9 298.1z" fill="rgba(255,255,255,.5)"/><rect x="51.6" y="321.0" width="37.1" height="54.5" rx="3" fill="rgba(186,230,253,0.6188450813293458)" stroke="rgba(17,24,39,.14)" stroke-width="1.2"/><path d="M56.0 368.9L78.2 326.4h5.9L61.9 370.0z" fill="rgba(255,255,255,.5)"/><rect x="51.6" y="392.9" width="37.1" height="54.5" rx="3" fill="rgba(186,230,253,0.6906016349792481)" stroke="rgba(17,24,39,.14)" stroke-width="1.2"/><rect x="51.6" y="464.8" width="37.1" height="54.5" rx="3" fill="rgba(186,230,253,0.8754840016365052)" stroke="rgba(17,24,39,.14)" stroke-width="1.2"/><path d="M56.0 512.8L78.2 470.3h5.9L61.9 513.9z" fill="rgba(255,255,255,.5)"/><rect x="51.6" y="536.8" width="37.1" height="54.5" rx="3" fill="rgba(186,230,253,0.5621912479400635)" stroke="rgba(17,24,39,.14)" stroke-width="1.2"/><path d="M56.0 584.7L78.2 542.2h5.9L61.9 585.8z" fill="rgba(255,255,255,.5)"/><rect x="106.0" y="177.1" width="37.1" height="54.5" rx="3" fill="rgba(186,230,253,0.5899715423583984)" stroke="rgba(17,24,39,.14)" stroke-width="1.2"/><path d="M110.5 225.0L132.7 182.5h5.9L116.4 226.1z" fill="rgba(255,255,255,.5)"/><rect x="106.0" y="249.0" width="37.1" height="54.5" rx="3" fill="rgba(186,230,253,0.6359796047210694)" stroke="rgba(17,24,39,.14)" stroke-width="1.2"/><rect x="106.0" y="321.0" width="37.1" height="54.5" rx="3" fill="rgba(186,230,253,0.7574267387390137)" stroke="rgba(17,24,39,.14)" stroke-width="1.2"/><rect x="106.0" y="392.9" width="37.1" height="54.5" rx="3" fill="rgba(186,230,253,0.9050105214118958)" stroke="rgba(17,24,39,.14)" stroke-width="1.2"/><rect x="106.0" y="464.8" width="37.1" height="54.5" rx="3" fill="rgba(186,230,253,0.6159914493560792)" stroke="rgba(17,24,39,.14)" stroke-width="1.2"/><rect x="106.0" y="536.8" width="37.1" height="54.5" rx="3" fill="rgba(186,230,253,0.5581333383917809)" stroke="rgba(17,24,39,.14)" stroke-width="1.2"/><rect x="160.5" y="177.1" width="37.1" height="54.5" rx="3" fill="rgba(186,230,253,0.7465538501739503)" stroke="rgba(17,24,39,.14)" stroke-width="1.2"/><rect x="160.5" y="249.0" width="37.1" height="54.5" rx="3" fill="rgba(186,230,253,0.6793484210968018)" stroke="rgba(17,24,39,.14)" stroke-width="1.2"/><path d="M165.0 297.0L187.2 254.5h5.9L170.9 298.1z" fill="rgba(255,255,255,.5)"/><rect x="160.5" y="321.0" width="37.1" height="54.5" rx="3" fill="rgba(186,230,253,0.5659424304962158)" stroke="rgba(17,24,39,.14)" stroke-width="1.2"/><path d="M165.0 368.9L187.2 326.4h5.9L170.9 370.0z" fill="rgba(255,255,255,.5)"/><rect x="160.5" y="392.9" width="37.1" height="54.5" rx="3" fill="rgba(186,230,253,0.9454668045043946)" stroke="rgba(17,24,39,.14)" stroke-width="1.2"/><rect x="160.5" y="464.8" width="37.1" height="54.5" rx="3" fill="rgba(186,230,253,0.928270161151886)" stroke="rgba(17,24,39,.14)" stroke-width="1.2"/><path d="M165.0 512.8L187.2 470.3h5.9L170.9 513.9z" fill="rgba(255,255,255,.5)"/><rect x="160.5" y="536.8" width="37.1" height="54.5" rx="3" fill="rgba(186,230,253,0.9337907314300538)" stroke="rgba(17,24,39,.14)" stroke-width="1.2"/><path d="M165.0 584.7L187.2 542.2h5.9L170.9 585.8z" fill="rgba(255,255,255,.5)"/><rect x="217" y="69" width="185" height="531" rx="6" fill="#d4d4d8"/><rect x="227.3" y="78.8" width="41.9" height="56.2" rx="3" fill="rgba(186,230,253,0.878527593612671)" stroke="rgba(17,24,39,.14)" stroke-width="1.2"/><path d="M232.4 128.2L257.5 84.4h6.7L239.1 129.4z" fill="rgba(255,255,255,.5)"/><rect x="227.3" y="154.7" width="41.9" height="56.2" rx="3" fill="rgba(186,230,253,0.9319528102874757)" stroke="rgba(17,24,39,.14)" stroke-width="1.2"/><path d="M232.4 204.1L257.5 160.3h6.7L239.1 205.2z" fill="rgba(255,255,255,.5)"/><rect x="227.3" y="230.5" width="41.9" height="56.2" rx="3" fill="rgba(186,230,253,0.9273427486419679)" stroke="rgba(17,24,39,.14)" stroke-width="1.2"/><rect x="227.3" y="306.4" width="41.9" height="56.2" rx="3" fill="rgba(186,230,253,0.8462159633636475)" stroke="rgba(17,24,39,.14)" stroke-width="1.2"/><path d="M232.4 355.8L257.5 312.0h6.7L239.1 356.9z" fill="rgba(255,255,255,.5)"/><rect x="227.3" y="382.3" width="41.9" height="56.2" rx="3" fill="rgba(186,230,253,0.9355206966400147)" stroke="rgba(17,24,39,.14)" stroke-width="1.2"/><rect x="227.3" y="458.1" width="41.9" height="56.2" rx="3" fill="rgba(186,230,253,0.8123223885893822)" stroke="rgba(17,24,39,.14)" stroke-width="1.2"/><rect x="227.3" y="534.0" width="41.9" height="56.2" rx="3" fill="rgba(186,230,253,0.9389749050140381)" stroke="rgba(17,24,39,.14)" stroke-width="1.2"/><rect x="288.9" y="78.8" width="41.9" height="56.2" rx="3" fill="rgba(186,230,253,0.9037252053618432)" stroke="rgba(17,24,39,.14)" stroke-width="1.2"/><path d="M293.9 128.2L319.0 84.4h6.7L300.6 129.4z" fill="rgba(255,255,255,.5)"/><rect x="288.9" y="154.7" width="41.9" height="56.2" rx="3" fill="rgba(186,230,253,0.7509191036224365)" stroke="rgba(17,24,39,.14)" stroke-width="1.2"/><path d="M293.9 204.1L319.0 160.3h6.7L300.6 205.2z" fill="rgba(255,255,255,.5)"/><rect x="288.9" y="230.5" width="41.9" height="56.2" rx="3" fill="rgba(186,230,253,0.7959519863128662)" stroke="rgba(17,24,39,.14)" stroke-width="1.2"/><rect x="288.9" y="306.4" width="41.9" height="56.2" rx="3" fill="rgba(186,230,253,0.6507718682289124)" stroke="rgba(17,24,39,.14)" stroke-width="1.2"/><rect x="288.9" y="382.3" width="41.9" height="56.2" rx="3" fill="rgba(186,230,253,0.9475197911262513)" stroke="rgba(17,24,39,.14)" stroke-width="1.2"/><rect x="288.9" y="458.1" width="41.9" height="56.2" rx="3" fill="rgba(186,230,253,0.5596213459968568)" stroke="rgba(17,24,39,.14)" stroke-width="1.2"/><path d="M293.9 507.5L319.0 463.7h6.7L300.6 508.7z" fill="rgba(255,255,255,.5)"/><rect x="288.9" y="534.0" width="41.9" height="56.2" rx="3" fill="rgba(186,230,253,0.7427642822265625)" stroke="rgba(17,24,39,.14)" stroke-width="1.2"/><rect x="350.5" y="78.8" width="41.9" height="56.2" rx="3" fill="rgba(186,230,253,0.8752670288085938)" stroke="rgba(17,24,39,.14)" stroke-width="1.2"/><path d="M355.5 128.2L380.6 84.4h6.7L362.2 129.4z" fill="rgba(255,255,255,.5)"/><rect x="350.5" y="154.7" width="41.9" height="56.2" rx="3" fill="rgba(186,230,253,0.776336669921875)" stroke="rgba(17,24,39,.14)" stroke-width="1.2"/><rect x="350.5" y="230.5" width="41.9" height="56.2" rx="3" fill="rgba(186,230,253,0.7581802368164063)" stroke="rgba(17,24,39,.14)" stroke-width="1.2"/><path d="M355.5 280.0L380.6 236.2h6.7L362.2 281.1z" fill="rgba(255,255,255,.5)"/><rect x="350.5" y="306.4" width="41.9" height="56.2" rx="3" fill="rgba(186,230,253,0.8525360107421875)" stroke="rgba(17,24,39,.14)" stroke-width="1.2"/><rect x="350.5" y="382.3" width="41.9" height="56.2" rx="3" fill="rgba(186,230,253,0.8419235348701477)" stroke="rgba(17,24,39,.14)" stroke-width="1.2"/><path d="M355.5 431.7L380.6 387.9h6.7L362.2 432.8z" fill="rgba(255,255,255,.5)"/><rect x="350.5" y="458.1" width="41.9" height="56.2" rx="3" fill="rgba(186,230,253,0.9130004405975343)" stroke="rgba(17,24,39,.14)" stroke-width="1.2"/><rect x="350.5" y="534.0" width="41.9" height="56.2" rx="3" fill="rgba(186,230,253,0.8341212749481202)" stroke="rgba(17,24,39,.14)" stroke-width="1.2"/><path d="M355.5 583.4L380.6 539.6h6.7L362.2 584.5z" fill="rgba(255,255,255,.5)"/><rect x="425" y="260" width="215" height="340" rx="6" fill="#dcdcdf"/><rect x="435.6" y="270.9" width="49.9" height="46.2" rx="3" fill="rgba(186,230,253,0.7695823192596436)" stroke="rgba(17,24,39,.14)" stroke-width="1.2"/><rect x="435.6" y="338.9" width="49.9" height="46.2" rx="3" fill="rgba(186,230,253,0.7592029213905335)" stroke="rgba(17,24,39,.14)" stroke-width="1.2"/><path d="M441.6 379.6L471.5 343.5h8.0L449.6 380.5z" fill="rgba(255,255,255,.5)"/><rect x="435.6" y="406.9" width="49.9" height="46.2" rx="3" fill="rgba(186,230,253,0.5936202049255371)" stroke="rgba(17,24,39,.14)" stroke-width="1.2"/><path d="M441.6 447.6L471.5 411.5h8.0L449.6 448.5z" fill="rgba(255,255,255,.5)"/><rect x="435.6" y="474.9" width="49.9" height="46.2" rx="3" fill="rgba(186,230,253,0.90146222114563)" stroke="rgba(17,24,39,.14)" stroke-width="1.2"/><path d="M441.6 515.6L471.5 479.5h8.0L449.6 516.5z" fill="rgba(255,255,255,.5)"/><rect x="435.6" y="542.9" width="49.9" height="46.2" rx="3" fill="rgba(186,230,253,0.602344560623169)" stroke="rgba(17,24,39,.14)" stroke-width="1.2"/><path d="M441.6 583.6L471.5 547.5h8.0L449.6 584.5z" fill="rgba(255,255,255,.5)"/><rect x="507.2" y="270.9" width="49.9" height="46.2" rx="3" fill="rgba(186,230,253,0.7852685928344727)" stroke="rgba(17,24,39,.14)" stroke-width="1.2"/><rect x="507.2" y="338.9" width="49.9" height="46.2" rx="3" fill="rgba(186,230,253,0.5531610608100892)" stroke="rgba(17,24,39,.14)" stroke-width="1.2"/><path d="M513.2 379.6L543.1 343.5h8.0L521.2 380.5z" fill="rgba(255,255,255,.5)"/><rect x="507.2" y="406.9" width="49.9" height="46.2" rx="3" fill="rgba(186,230,253,0.8116511344909669)" stroke="rgba(17,24,39,.14)" stroke-width="1.2"/><path d="M513.2 447.6L543.1 411.5h8.0L521.2 448.5z" fill="rgba(255,255,255,.5)"/><rect x="507.2" y="474.9" width="49.9" height="46.2" rx="3" fill="rgba(186,230,253,0.841150188446045)" stroke="rgba(17,24,39,.14)" stroke-width="1.2"/><path d="M513.2 515.6L543.1 479.5h8.0L521.2 516.5z" fill="rgba(255,255,255,.5)"/><rect x="507.2" y="542.9" width="49.9" height="46.2" rx="3" fill="rgba(186,230,253,0.6092539787292481)" stroke="rgba(17,24,39,.14)" stroke-width="1.2"/><rect x="578.8" y="270.9" width="49.9" height="46.2" rx="3" fill="rgba(186,230,253,0.8389069318771363)" stroke="rgba(17,24,39,.14)" stroke-width="1.2"/><rect x="578.8" y="338.9" width="49.9" height="46.2" rx="3" fill="rgba(186,230,253,0.7672937393188477)" stroke="rgba(17,24,39,.14)" stroke-width="1.2"/><path d="M584.8 379.6L614.7 343.5h8.0L592.8 380.5z" fill="rgba(255,255,255,.5)"/><rect x="578.8" y="406.9" width="49.9" height="46.2" rx="3" fill="rgba(186,230,253,0.8251764297485352)" stroke="rgba(17,24,39,.14)" stroke-width="1.2"/><rect x="578.8" y="474.9" width="49.9" height="46.2" rx="3" fill="rgba(186,230,253,0.8700464367866516)" stroke="rgba(17,24,39,.14)" stroke-width="1.2"/><rect x="578.8" y="542.9" width="49.9" height="46.2" rx="3" fill="rgba(186,230,253,0.7081902980804444)" stroke="rgba(17,24,39,.14)" stroke-width="1.2"/><path d="M584.8 583.6L614.7 547.5h8.0L592.8 584.5z" fill="rgba(255,255,255,.5)"/><rect x="662" y="232" width="140" height="368" rx="6" fill="#e7e5e4"/><rect x="673.4" y="243.6" width="47.7" height="51.1" rx="3" fill="rgba(186,230,253,0.8189977169036866)" stroke="rgba(17,24,39,.14)" stroke-width="1.2"/><path d="M679.1 288.5L707.8 248.7h7.6L686.8 289.5z" fill="rgba(255,255,255,.5)"/><rect x="673.4" y="317.1" width="47.7" height="51.1" rx="3" fill="rgba(186,230,253,0.6754563808441163)" stroke="rgba(17,24,39,.14)" stroke-width="1.2"/><rect x="673.4" y="390.6" width="47.7" height="51.1" rx="3" fill="rgba(186,230,253,0.7799832940101624)" stroke="rgba(17,24,39,.14)" stroke-width="1.2"/><path d="M679.1 435.6L707.8 395.7h7.6L686.8 436.6z" fill="rgba(255,255,255,.5)"/><rect x="673.4" y="464.2" width="47.7" height="51.1" rx="3" fill="rgba(186,230,253,0.9459694862365724)" stroke="rgba(17,24,39,.14)" stroke-width="1.2"/><path d="M679.1 509.1L707.8 469.3h7.6L686.8 510.1z" fill="rgba(255,255,255,.5)"/><rect x="673.4" y="537.7" width="47.7" height="51.1" rx="3" fill="rgba(186,230,253,0.8862763404846192)" stroke="rgba(17,24,39,.14)" stroke-width="1.2"/><path d="M679.1 582.6L707.8 542.8h7.6L686.8 583.7z" fill="rgba(255,255,255,.5)"/><rect x="743.6" y="243.6" width="47.7" height="51.1" rx="3" fill="rgba(186,230,253,0.775917911529541)" stroke="rgba(17,24,39,.14)" stroke-width="1.2"/><path d="M749.3 288.5L778.0 248.7h7.6L757.0 289.5z" fill="rgba(255,255,255,.5)"/><rect x="743.6" y="317.1" width="47.7" height="51.1" rx="3" fill="rgba(186,230,253,0.7175797462463379)" stroke="rgba(17,24,39,.14)" stroke-width="1.2"/><path d="M749.3 362.0L778.0 322.2h7.6L757.0 363.1z" fill="rgba(255,255,255,.5)"/><rect x="743.6" y="390.6" width="47.7" height="51.1" rx="3" fill="rgba(186,230,253,0.5682442665100098)" stroke="rgba(17,24,39,.14)" stroke-width="1.2"/><path d="M749.3 435.6L778.0 395.7h7.6L757.0 436.6z" fill="rgba(255,255,255,.5)"/><rect x="743.6" y="464.2" width="47.7" height="51.1" rx="3" fill="rgba(186,230,253,0.9409925937652588)" stroke="rgba(17,24,39,.14)" stroke-width="1.2"/><path d="M749.3 509.1L778.0 469.3h7.6L757.0 510.1z" fill="rgba(255,255,255,.5)"/><rect x="743.6" y="537.7" width="47.7" height="51.1" rx="3" fill="rgba(186,230,253,0.7037364959716798)" stroke="rgba(17,24,39,.14)" stroke-width="1.2"/><path d="M749.3 582.6L778.0 542.8h7.6L757.0 583.7z" fill="rgba(255,255,255,.5)"/>
<circle cx="335" cy="511" r="4.9" fill="rgba(255,255,255,.75)"/><circle cx="515" cy="327" r="3.0" fill="rgba(255,255,255,.75)"/><circle cx="366" cy="532" r="4.3" fill="rgba(255,255,255,.75)"/><circle cx="176" cy="477" r="2.6" fill="rgba(255,255,255,.75)"/><circle cx="610" cy="377" r="3.5" fill="rgba(255,255,255,.75)"/><circle cx="407" cy="512" r="5.1" fill="rgba(255,255,255,.75)"/><circle cx="460" cy="469" r="3.0" fill="rgba(255,255,255,.75)"/><circle cx="466" cy="297" r="3.5" fill="rgba(255,255,255,.75)"/><circle cx="267" cy="466" r="2.4" fill="rgba(255,255,255,.75)"/><circle cx="258" cy="523" r="4.9" fill="rgba(255,255,255,.75)"/><circle cx="274" cy="348" r="4.4" fill="rgba(255,255,255,.75)"/><circle cx="306" cy="230" r="4.2" fill="rgba(255,255,255,.75)"/><circle cx="279" cy="267" r="5.5" fill="rgba(255,255,255,.75)"/><circle cx="393" cy="193" r="4.9" fill="rgba(255,255,255,.75)"/><circle cx="226" cy="200" r="3.3" fill="rgba(255,255,255,.75)"/><circle cx="264" cy="372" r="4.5" fill="rgba(255,255,255,.75)"/><circle cx="384" cy="333" r="2.4" fill="rgba(255,255,255,.75)"/><circle cx="183" cy="424" r="2.5" fill="rgba(255,255,255,.75)"/><circle cx="576" cy="510" r="2.3" fill="rgba(255,255,255,.75)"/><circle cx="469" cy="339" r="2.6" fill="rgba(255,255,255,.75)"/><circle cx="235" cy="335" r="3.0" fill="rgba(255,255,255,.75)"/><circle cx="635" cy="355" r="3.2" fill="rgba(255,255,255,.75)"/><circle cx="434" cy="478" r="3.1" fill="rgba(255,255,255,.75)"/><circle cx="485" cy="357" r="2.7" fill="rgba(255,255,255,.75)"/><circle cx="321" cy="361" r="4.7" fill="rgba(255,255,255,.75)"/><circle cx="377" cy="447" r="1.8" fill="rgba(255,255,255,.75)"/><rect x="64" y="372" width="128" height="12" rx="6" fill="#facc15"/>


</svg>