<svg xmlns="http://www.w3.org/2000/svg" viewBox="0 0 800 600" width="800" height="600" role="img">
<defs><linearGradient id="sky" x1="0" y1="0" x2="0" y2="1"><stop offset="0" stop-color="#dbeafe"/><stop offset="1" stop-color="#fffdf7"/></linearGradient></defs>
<rect width="800" height="600" fill="url(#sky)"/>
<circle cx="694" cy="51" r="37" fill="#facc15" opacity=".55"/>
<rect x="21" y="231" width="232" height="369" rx="6" fill="#e7e5e4"/><rect x="29.8" y="240.8" width="39.4" height="55.2" rx="3" fill="rgba(186,230,253,0.9198680400848389)" stroke="rgba(17,24,39,.14)" stroke-width="1.2"/><rect x="29.8" y="314.5" width="39.4" height="55.2" rx="3" fill="rgba(186,230,253,0.8534614205360413)" stroke="rgba(17,24,39,.14)" stroke-width="1.2"/><path d="M34.5 363.0L58.2 320.0h6.3L40.8 364.1z" fill="rgba(255,255,255,.5)"/><rect x="29.8" y="388.2" width="39.4" height="55.2" rx="3" fill="rgba(186,230,253,0.7878329277038575)" stroke="rgba(17,24,39,.14)" stroke-width="1.2"/><path d="M34.5 436.7L58.2 393.7h6.3L40.8 437.8z" fill="rgba(255,255,255,.5)"/><rect x="29.8" y="461.9" width="39.4" height="55.2" rx="3" fill="rgba(186,230,253,0.6312541007995606)" stroke="rgba(17,24,39,.14)" stroke-width="1.2"/><rect x="29.8" y="535.6" width="39.4" height="55.2" rx="3" fill="rgba(186,230,253,0.8817322254180908)" stroke="rgba(17,24,39,.14)" stroke-width="1.2"/><rect x="87.7" y="240.8" width="39.4" height="55.2" rx="3" fill="rgba(186,230,253,0.6453434571623803)" stroke="rgba(17,24,39,.14)" stroke-width="1.2"/><rect x="87.7" y="314.5" width="39.4" height="55.2" rx="3" fill="rgba(186,230,253,0.766294538974762)" stroke="rgba(17,24,39,.14)" stroke-width="1.2"/><path d="M92.5 363.0L116.1 320.0h6.3L98.8 364.1z" fill="rgba(255,255,255,.5)"/><rect x="87.7" y="388.2" width="39.4" height="55.2" rx="3" fill="rgba(186,230,253,0.6306716918945313)" stroke="rgba(17,24,39,.14)" stroke-width="1.2"/><path d="M92.5 436.7L116.1 393.7h6.3L98.8 437.8z" fill="rgba(255,255,255,.5)"/><rect x="87.7" y="461.9" width="39.4" height="55.2" rx="3" fill="rgba(186,230,253,0.9221906185150147)" stroke="rgba(17,24,39,.14)" stroke-width="1.2"/><path d="M92.5 510.4L116.1 467.4h6.3L98.8 511.5z" fill="rgba(255,255,255,.5)"/><rect x="87.7" y="535.6" width="39.4" height="55.2" rx="3" fill="rgba(186,230,253,0.6876641750335694)" stroke="rgba(17,24,39,.14)" stroke-width="1.2"/><path d="M92.5 584.1L116.1 541.1h6.3L98.8 585.2z" fill="rgba(255,255,255,.5)"/><rect x="145.7" y="240.8" width="39.4" height="55.2" rx="3" fill="rgba(186,230,253,0.6418797969818115)" stroke="rgba(17,24,39,.14)" stroke-width="1.2"/><path d="M150.4 289.3L174.1 246.3h6.3L156.7 290.4z" fill="rgba(255,255,255,.5)"/><rect x="145.7" y="314.5" width="39.4" height="55.2" rx="3" fill="rgba(186,230,253,0.9361266136169435)" stroke="rgba(17,24,39,.14)" stroke-width="1.2"/><path d="M150.4 363.0L174.1 320.0h6.3L156.7 364.1z" fill="rgba(255,255,255,.5)"/><rect x="145.7" y="388.2" width="39.4" height="55.2" rx="3" fill="rgba(186,230,253,0.882364559173584)" stroke="rgba(17,24,39,.14)" stroke-width="1.2"/><path d="M150.4 436.7L174.1 393.7h6.3L156.7 437.8z" fill="rgba(255,255,255,.5)"/><rect x="145.7" y="461.9" width="39.4" height="55.2" rx="3" fill="rgba(186,230,253,0.6221144676208497)" stroke="rgba(17,24,39,.14)" stroke-width="1.2"/><rect x="145.7" y="535.6" width="39.4" height="55.2" rx="3" fill="rgba(186,230,253,0.8511723265051843)" stroke="rgba(17,24,39,.14)" stroke-width="1.2"/><rect x="203.6" y="240.8" width="39.4" height="55.2" rx="3" fill="rgba(186,230,253,0.7473064541816712)" stroke="rgba(17,24,39,.14)" stroke-width="1.2"/><rect x="203.6" y="314.5" width="39.4" height="55.2" rx="3" fill="rgba(186,230,253,0.7444179058074951)" stroke="rgba(17,24,39,.14)" stroke-width="1.2"/><rect x="203.6" y="388.2" width="39.4" height="55.2" rx="3" fill="rgba(186,230,253,0.8851035594940186)" stroke="rgba(17,24,39,.14)" stroke-width="1.2"/><rect x="203.6" y="461.9" width="39.4" height="55.2" rx="3" fill="rgba(186,230,253,0.7983081340789795)" stroke="rgba(17,24,39,.14)" stroke-width="1.2"/><path d="M208.4 510.4L232.0 467.4h6.3L214.7 511.5z" fill="rgba(255,255,255,.5)"/><rect x="203.6" y="535.6" width="39.4" height="55.2" rx="3" fill="rgba(186,230,253,0.611936902999878)" stroke="rgba(17,24,39,.14)" stroke-width="1.2"/><path d="M208.4 584.1L232.0 541.1h6.3L214.7 585.2z" fill="rgba(255,255,255,.5)"/><rect x="262" y="258" width="185" height="342" rx="6" fill="#d4d4d8"/><rect x="271.9" y="267.8" width="41.9" height="48.7" rx="3" fill="rgba(186,230,253,0.648470401763916)" stroke="rgba(17,24,39,.14)" stroke-width="1.2"/><path d="M276.9 310.7L302.0 272.7h6.7L283.6 311.7z" fill="rgba(255,255,255,.5)"/><rect x="271.9" y="336.2" width="41.9" height="48.7" rx="3" fill="rgba(186,230,253,0.8449662208557129)" stroke="rgba(17,24,39,.14)" stroke-width="1.2"/><path d="M276.9 379.1L302.0 341.1h6.7L283.6 380.1z" fill="rgba(255,255,255,.5)"/><rect x="271.9" y="404.6" width="41.9" height="48.7" rx="3" fill="rgba(186,230,253,0.8281991004943848)" stroke="rgba(17,24,39,.14)" stroke-width="1.2"/><rect x="271.9" y="473.0" width="41.9" height="48.7" rx="3" fill="rgba(186,230,253,0.7406983375549316)" stroke="rgba(17,24,39,.14)" stroke-width="1.2"/><path d="M276.9 515.9L302.0 477.9h6.7L283.6 516.9z" fill="rgba(255,255,255,.5)"/><rect x="271.9" y="541.5" width="41.9" height="48.7" rx="3" fill="rgba(186,230,253,0.6230401039123535)" stroke="rgba(17,24,39,.14)" stroke-width="1.2"/><rect x="333.5" y="267.8" width="41.9" height="48.7" rx="3" fill="rgba(186,230,253,0.7656492710113526)" stroke="rgba(17,24,39,.14)" stroke-width="1.2"/><rect x="333.5" y="336.2" width="41.9" height="48.7" rx="3" fill="rgba(186,230,253,0.7772387027740479)" stroke="rgba(17,24,39,.14)" stroke-width="1.2"/><path d="M338.5 379.1L363.6 341.1h6.7L345.2 380.1z" fill="rgba(255,255,255,.5)"/><rect x="333.5" y="404.6" width="41.9" height="48.7" rx="3" fill="rgba(186,230,253,0.7458868503570557)" stroke="rgba(17,24,39,.14)" stroke-width="1.2"/><rect x="333.5" y="473.0" width="41.9" height="48.7" rx="3" fill="rgba(186,230,253,0.8885126709938049)" stroke="rgba(17,24,39,.14)" stroke-width="1.2"/><path d="M338.5 515.9L363.6 477.9h6.7L345.2 516.9z" fill="rgba(255,255,255,.5)"/><rect x="333.5" y="541.5" width="41.9" height="48.7" rx="3" fill="rgba(186,230,253,0.766212272644043)" stroke="rgba(17,24,39,.14)" stroke-width="1.2"/><path d="M338.5 584.3L363.6 546.3h6.7L345.2 585.3z" fill="rgba(255,255,255,.5)"/><rect x="395.0" y="267.8" width="41.9" height="48.7" rx="3" fill="rgba(186,230,253,0.7258802413940431)" stroke="rgba(17,24,39,.14)" stroke-width="1.2"/><rect x="395.0" y="336.2" width="41.9" height="48.7" rx="3" fill="rgba(186,230,253,0.8410169720649721)" stroke="rgba(17,24,39,.14)" stroke-width="1.2"/><rect x="395.0" y="404.6" width="41.9" height="48.7" rx="3" fill="rgba(186,230,253,0.6524793267250062)" stroke="rgba(17,24,39,.14)" stroke-width="1.2"/><rect x="395.0" y="473.0" width="41.9" height="48.7" rx="3" fill="rgba(186,230,253,0.6416466712951661)" stroke="rgba(17,24,39,.14)" stroke-width="1.2"/><rect x="395.0" y="541.5" width="41.9" height="48.7" rx="3" fill="rgba(186,230,253,0.6646513462066651)" stroke="rgba(17,24,39,.14)" stroke-width="1.2"/><path d="M400.0 584.3L425.2 546.3h6.7L406.7 585.3z" fill="rgba(255,255,255,.5)"/><rect x="470" y="66" width="314" height="534" rx="6" fill="#dcdcdf"/><rect x="481.9" y="78.7" width="54.2" height="51.8" rx="3" fill="rgba(186,230,253,0.8302690505981446)" stroke="rgba(17,24,39,.14)" stroke-width="1.2"/><rect x="481.9" y="154.9" width="54.2" height="51.8" rx="3" fill="rgba(186,230,253,0.876256000995636)" stroke="rgba(17,24,39,.14)" stroke-width="1.2"/><rect x="481.9" y="231.1" width="54.2" height="51.8" rx="3" fill="rgba(186,230,253,0.8660539269447327)" stroke="rgba(17,24,39,.14)" stroke-width="1.2"/><path d="M488.4 276.7L521.0 236.3h8.7L497.1 277.8z" fill="rgba(255,255,255,.5)"/><rect x="481.9" y="307.3" width="54.2" height="51.8" rx="3" fill="rgba(186,230,253,0.6820187568664551)" stroke="rgba(17,24,39,.14)" stroke-width="1.2"/><rect x="481.9" y="383.5" width="54.2" height="51.8" rx="3" fill="rgba(186,230,253,0.6278950810432434)" stroke="rgba(17,24,39,.14)" stroke-width="1.2"/><path d="M488.4 429.2L521.0 388.7h8.7L497.1 430.2z" fill="rgba(255,255,255,.5)"/><rect x="481.9" y="459.8" width="54.2" height="51.8" rx="3" fill="rgba(186,230,253,0.7546028137207031)" stroke="rgba(17,24,39,.14)" stroke-width="1.2"/><rect x="481.9" y="536.0" width="54.2" height="51.8" rx="3" fill="rgba(186,230,253,0.9405784606933594)" stroke="rgba(17,24,39,.14)" stroke-width="1.2"/><rect x="560.5" y="78.7" width="54.2" height="51.8" rx="3" fill="rgba(186,230,253,0.5719276428222657)" stroke="rgba(17,24,39,.14)" stroke-width="1.2"/><rect x="560.5" y="154.9" width="54.2" height="51.8" rx="3" fill="rgba(186,230,253,0.7286748409271241)" stroke="rgba(17,24,39,.14)" stroke-width="1.2"/><rect x="560.5" y="231.1" width="54.2" height="51.8" rx="3" fill="rgba(186,230,253,0.7024919152259828)" stroke="rgba(17,24,39,.14)" stroke-width="1.2"/><path d="M567.0 276.7L599.5 236.3h8.7L575.7 277.8z" fill="rgba(255,255,255,.5)"/><rect x="560.5" y="307.3" width="54.2" height="51.8" rx="3" fill="rgba(186,230,253,0.8392575263977051)" stroke="rgba(17,24,39,.14)" stroke-width="1.2"/><rect x="560.5" y="383.5" width="54.2" height="51.8" rx="3" fill="rgba(186,230,253,0.9192158699035645)" stroke="rgba(17,24,39,.14)" stroke-width="1.2"/><path d="M567.0 429.2L599.5 388.7h8.7L575.7 430.2z" fill="rgba(255,255,255,.5)"/><rect x="560.5" y="459.8" width="54.2" height="51.8" rx="3" fill="rgba(186,230,253,0.6925763130187989)" stroke="rgba(17,24,39,.14)" stroke-width="1.2"/><path d="M567.0 505.4L599.5 464.9h8.7L575.7 506.4z" fill="rgba(255,255,255,.5)"/><rect x="560.5" y="536.0" width="54.2" height="51.8" rx="3" fill="rgba(186,230,253,0.5575322151184082)" stroke="rgba(17,24,39,.14)" stroke-width="1.2"/><path d="M567.0 581.6L599.5 541.2h8.7L575.7 582.6z" fill="rgba(255,255,255,.5)"/><rect x="639.1" y="78.7" width="54.2" height="51.8" rx="3" fill="rgba(186,230,253,0.6099472999572755)" stroke="rgba(17,24,39,.14)" stroke-width="1.2"/><path d="M645.6 124.3L678.1 83.9h8.7L654.2 125.3z" fill="rgba(255,255,255,.5)"/><rect x="639.1" y="154.9" width="54.2" height="51.8" rx="3" fill="rgba(186,230,253,0.7202017307281494)" stroke="rgba(17,24,39,.14)" stroke-width="1.2"/><path d="M645.6 200.5L678.1 160.1h8.7L654.2 201.5z" fill="rgba(255,255,255,.5)"/><rect x="639.1" y="231.1" width="54.2" height="51.8" rx="3" fill="rgba(186,230,253,0.5814188480377198)" stroke="rgba(17,24,39,.14)" stroke-width="1.2"/><path d="M645.6 276.7L678.1 236.3h8.7L654.2 277.8z" fill="rgba(255,255,255,.5)"/><rect x="639.1" y="307.3" width="54.2" height="51.8" rx="3" fill="rgba(186,230,253,0.8377758026123048)" stroke="rgba(17,24,39,.14)" stroke-width="1.2"/><rect x="639.1" y="383.5" width="54.2" height="51.8" rx="3" fill="rgba(186,230,253,0.7356563568115235)" stroke="rgba(17,24,39,.14)" stroke-width="1.2"/><rect x="639.1" y="459.8" width="54.2" height="51.8" rx="3" fill="rgba(186,230,253,0.6560833096504212)" stroke="rgba(17,24,39,.14)" stroke-width="1.2"/><path d="M645.6 505.4L678.1 464.9h8.7L654.2 506.4z" fill="rgba(255,255,255,.5)"/><rect x="639.1" y="536.0" width="54.2" height="51.8" rx="3" fill="rgba(186,230,253,0.7847377300262451)" stroke="rgba(17,24,39,.14)" stroke-width="1.2"/><rect x="717.6" y="78.7" width="54.2" height="51.8" rx="3" fill="rgba(186,230,253,0.6874351143836975)" stroke="rgba(17,24,39,.14)" stroke-width="1.2"/><path d="M724.1 124.3L756.6 83.9h8.7L732.8 125.3z" fill="rgba(255,255,255,.5)"/><rect x="717.6" y="154.9" width="54.2" height="51.8" rx="3" fill="rgba(186,230,253,0.9339770317077638)" stroke="rgba(17,24,39,.14)" stroke-width="1.2"/><path d="M724.1 200.5L756.6 160.1h8.7L732.8 201.5z" fill="rgba(255,255,255,.5)"/><rect x="717.6" y="231.1" width="54.2" height="51.8" rx="3" fill="rgba(186,230,253,0.5615412712097169)" stroke="rgba(17,24,39,.14)" stroke-width="1.2"/><path d="M724.1 276.7L756.6 236.3h8.7L732.8 277.8z" fill="rgba(255,255,255,.5)"/><rect x="717.6" y="307.3" width="54.2" height="51.8" rx="3" fill="rgba(186,230,253,0.5589255332946778)" stroke="rgba(17,24,39,.14)" stroke-width="1.2"/><rect x="717.6" y="383.5" width="54.2" height="51.8" rx="3" fill="rgba(186,230,253,0.7114214897155762)" stroke="rgba(17,24,39,.14)" stroke-width="1.2"/><path d="M724.1 429.2L756.6 388.7h8.7L732.8 430.2z" fill="rgba(255,255,255,.5)"/><rect x="717.6" y="459.8" width="54.2" height="51.8" rx="3" fill="rgba(186,230,253,0.7635218620300294)" stroke="rgba(17,24,39,.14)" stroke-width="1.2"/><path d="M724.1 505.4L756.6 464.9h8.7L732.8 506.4z" fill="rgba(255,255,255,.5)"/><rect x="717.6" y="536.0" width="54.2" height="51.8" rx="3" fill="rgba(186,230,253,0.7391390800476074)" stroke="rgba(17,24,39,.14)" stroke-width="1.2"/><path d="M724.1 581.6L756.6 541.2h8.7L732.8 582.6z" fill="rgba(255,255,255,.5)"/>
<circle cx="235" cy="360" r="5.2" fill="rgba(255,255,255,.75)"/><circle cx="534" cy="415" r="2.4" fill="rgba(255,255,255,.75)"/><circle cx="270" cy="483" r="3.8" fill="rgba(255,255,255,.75)"/><circle cx="632" cy="445" r="2.8" fill="rgba(255,255,255,.75)"/><circle cx="333" cy="444" r="5.2" fill="rgba(255,255,255,.75)"/><circle cx="504" cy="533" r="1.8" fill="rgba(255,255,255,.75)"/><circle cx="177" cy="332" r="4.6" fill="rgba(255,255,255,.75)"/><circle cx="489" cy="407" r="3.4" fill="rgba(255,255,255,.75)"/><circle cx="360" cy="385" r="4.9" fill="rgba(255,255,255,.75)"/><circle cx="313" cy="433" r="1.8" fill="rgba(255,255,255,.75)"/><circle cx="456" cy="467" r="5.1" fill="rgba(255,255,255,.75)"/><circle cx="275" cy="315" r="2.3" fill="rgba(255,255,255,.75)"/><circle cx="561" cy="272" r="3.9" fill="rgba(255,255,255,.75)"/><circle cx="240" cy="491" r="4.7" fill="rgba(255,255,255,.75)"/><circle cx="476" cy="301" r="3.6" fill="rgba(255,255,255,.75)"/><circle cx="518" cy="250" r="5.0" fill="rgba(255,255,255,.75)"/><circle cx="499" cy="207" r="2.1" fill="rgba(255,255,255,.75)"/><circle cx="192" cy="235" r="1.7" fill="rgba(255,255,255,.75)"/><circle cx="516" cy="346" r="3.8" fill="rgba(255,255,255,.75)"/><circle cx="608" cy="449" r="2.8" fill="rgba(255,255,255,.75)"/><circle cx="434" cy="277" r="3.5" fill="rgba(255,255,255,.75)"/><circle cx="616" cy="534" r="5.4" fill="rgba(255,255,255,.75)"/><circle cx="580" cy="445" r="3.7" fill="rgba(255,255,255,.75)"/><circle cx="597" cy="461" r="2.1" fill="rgba(255,255,255,.75)"/><circle cx="526" cy="442" r="2.1" fill="rgba(255,255,255,.75)"/><circle cx="370" cy="451" r="2.8" fill="rgba(255,255,255,.75)"/><rect x="64" y="372" width="128" height="12" rx="6" fill="#facc15"/>

<g><rect x="0" y="538" width="800" height="62" fill="rgba(17,24,39,.62)"/><text x="28" y="576" font-family="system-ui, sans-serif" font-size="20" font-weight="600" fill="#ffffff">외벽 고압세척</text></g>
</svg>