<svg xmlns="http://www.w3.org/2000/svg" viewBox="0 0 800 600" width="800" height="600" role="img">
<defs><linearGradient id="sky" x1="0" y1="0" x2="0" y2="1"><stop offset="0" stop-color="#dbeafe"/><stop offset="1" stop-color="#fffdf7"/></linearGradient></defs>
<rect width="800" height="600" fill="url(#sky)"/>
<circle cx="580" cy="108" r="50" fill="#facc15" opacity=".55"/>
<rect x="19" y="79" width="192" height="521" rx="6" fill="#e7e5e4"/><rect x="29.0" y="88.9" width="43.5" height="54.0" rx="3" fill="rgba(186,230,253,0.5981845855712891)" stroke="rgba(17,24,39,.14)" stroke-width="1.2"/><path d="M34.2 136.4L60.3 94.3h7.0L41.2 137.5z" fill="rgba(255,255,255,.5)"/><rect x="29.0" y="163.4" width="43.5" height="54.0" rx="3" fill="rgba(186,230,253,0.589364767074585)" stroke="rgba(17,24,39,.14)" stroke-width="1.2"/><path d="M34.2 210.9L60.3 168.8h7.0L41.2 212.0z" fill="rgba(255,255,255,.5)"/><rect x="29.0" y="237.9" width="43.5" height="54.0" rx="3" fill="rgba(186,230,253,0.6195094108581544)" stroke="rgba(17,24,39,.14)" stroke-width="1.2"/><rect x="29.0" y="312.3" width="43.5" height="54.0" rx="3" fill="rgba(186,230,253,0.8258835315704347)" stroke="rgba(17,24,39,.14)" stroke-width="1.2"/><rect x="29.0" y="386.8" width="43.5" height="54.0" rx="3" fill="rgba(186,230,253,0.8023243427276612)" stroke="rgba(17,24,39,.14)" stroke-width="1.2"/><rect x="29.0" y="461.3" width="43.5" height="54.0" rx="3" fill="rgba(186,230,253,0.7811485886573792)" stroke="rgba(17,24,39,.14)" stroke-width="1.2"/><path d="M34.2 508.8L60.3 466.7h7.0L41.2 509.9z" fill="rgba(255,255,255,.5)"/><rect x="29.0" y="535.8" width="43.5" height="54.0" rx="3" fill="rgba(186,230,253,0.746401596069336)" stroke="rgba(17,24,39,.14)" stroke-width="1.2"/><path d="M34.2 583.3L60.3 541.2h7.0L41.2 584.4z" fill="rgba(255,255,255,.5)"/><rect x="92.9" y="88.9" width="43.5" height="54.0" rx="3" fill="rgba(186,230,253,0.6046459197998048)" stroke="rgba(17,24,39,.14)" stroke-width="1.2"/><path d="M98.2 136.4L124.3 94.3h7.0L105.1 137.5z" fill="rgba(255,255,255,.5)"/><rect x="92.9" y="163.4" width="43.5" height="54.0" rx="3" fill="rgba(186,230,253,0.8994454860687257)" stroke="rgba(17,24,39,.14)" stroke-width="1.2"/><path d="M98.2 210.9L124.3 168.8h7.0L105.1 212.0z" fill="rgba(255,255,255,.5)"/><rect x="92.9" y="237.9" width="43.5" height="54.0" rx="3" fill="rgba(186,230,253,0.7453237056732178)" stroke="rgba(17,24,39,.14)" stroke-width="1.2"/><rect x="92.9" y="312.3" width="43.5" height="54.0" rx="3" fill="rgba(186,230,253,0.6154664516448975)" stroke="rgba(17,24,39,.14)" stroke-width="1.2"/><path d="M98.2 359.9L124.3 317.7h7.0L105.1 360.9z" fill="rgba(255,255,255,.5)"/><rect x="92.9" y="386.8" width="43.5" height="54.0" rx="3" fill="rgba(186,230,253,0.7929987907409668)" stroke="rgba(17,24,39,.14)" stroke-width="1.2"/><rect x="92.9" y="461.3" width="43.5" height="54.0" rx="3" fill="rgba(186,230,253,0.7326540946960449)" stroke="rgba(17,24,39,.14)" stroke-width="1.2"/><rect x="92.9" y="535.8" width="43.5" height="54.0" rx="3" fill="rgba(186,230,253,0.667164146900177)" stroke="rgba(17,24,39,.14)" stroke-width="1.2"/><path d="M98.2 583.3L124.3 541.2h7.0L105.1 584.4z" fill="rgba(255,255,255,.5)"/><rect x="156.9" y="88.9" width="43.5" height="54.0" rx="3" fill="rgba(186,230,253,0.5866533756256104)" stroke="rgba(17,24,39,.14)" stroke-width="1.2"/><path d="M162.1 136.4L188.2 94.3h7.0L169.1 137.5z" fill="rgba(255,255,255,.5)"/><rect x="156.9" y="163.4" width="43.5" height="54.0" rx="3" fill="rgba(186,230,253,0.6534168243408204)" stroke="rgba(17,24,39,.14)" stroke-width="1.2"/><path d="M162.1 210.9L188.2 168.8h7.0L169.1 212.0z" fill="rgba(255,255,255,.5)"/><rect x="156.9" y="237.9" width="43.5" height="54.0" rx="3" fill="rgba(186,230,253,0.9096042633056641)" stroke="rgba(17,24,39,.14)" stroke-width="1.2"/><path d="M162.1 285.4L188.2 243.3h7.0L169.1 286.5z" fill="rgba(255,255,255,.5)"/><rect x="156.9" y="312.3" width="43.5" height="54.0" rx="3" fill="rgba(186,230,253,0.7428791046142579)" stroke="rgba(17,24,39,.14)" stroke-width="1.2"/><path d="M162.1 359.9L188.2 317.7h7.0L169.1 360.9z" fill="rgba(255,255,255,.5)"/><rect x="156.9" y="386.8" width="43.5" height="54.0" rx="3" fill="rgba(186,230,253,0.8640811920166016)" stroke="rgba(17,24,39,.14)" stroke-width="1.2"/><path d="M162.1 434.3L188.2 392.2h7.0L169.1 435.4z" fill="rgba(255,255,255,.5)"/><rect x="156.9" y="461.3" width="43.5" height="54.0" rx="3" fill="rgba(186,230,253,0.8613941192626954)" stroke="rgba(17,24,39,.14)" stroke-width="1.2"/><path d="M162.1 508.8L188.2 466.7h7.0L169.1 509.9z" fill="rgba(255,255,255,.5)"/><rect x="156.9" y="535.8" width="43.5" height="54.0" rx="3" fill="rgba(186,230,253,0.8440952301025391)" stroke="rgba(17,24,39,.14)" stroke-width="1.2"/><path d="M162.1 583.3L188.2 541.2h7.0L169.1 584.4z" fill="rgba(255,255,255,.5)"/><rect x="231" y="114" width="184" height="486" rx="6" fill="#d4d4d8"/><rect x="240.6" y="124.1" width="41.7" height="49.8" rx="3" fill="rgba(186,230,253,0.8363056182861328)" stroke="rgba(17,24,39,.14)" stroke-width="1.2"/><rect x="240.6" y="193.5" width="41.7" height="49.8" rx="3" fill="rgba(186,230,253,0.7207401275634766)" stroke="rgba(17,24,39,.14)" stroke-width="1.2"/><rect x="240.6" y="262.9" width="41.7" height="49.8" rx="3" fill="rgba(186,230,253,0.7324573516845704)" stroke="rgba(17,24,39,.14)" stroke-width="1.2"/><path d="M245.6 306.7L270.7 267.9h6.7L252.3 307.7z" fill="rgba(255,255,255,.5)"/><rect x="240.6" y="332.3" width="41.7" height="49.8" rx="3" fill="rgba(186,230,253,0.9026096343994141)" stroke="rgba(17,24,39,.14)" stroke-width="1.2"/><path d="M245.6 376.1L270.7 337.3h6.7L252.3 377.1z" fill="rgba(255,255,255,.5)"/><rect x="240.6" y="401.7" width="41.7" height="49.8" rx="3" fill="rgba(186,230,253,0.6521930694580078)" stroke="rgba(17,24,39,.14)" stroke-width="1.2"/><rect x="240.6" y="471.0" width="41.7" height="49.8" rx="3" fill="rgba(186,230,253,0.9357975125312805)" stroke="rgba(17,24,39,.14)" stroke-width="1.2"/><rect x="240.6" y="540.4" width="41.7" height="49.8" rx="3" fill="rgba(186,230,253,0.7074634075164795)" stroke="rgba(17,24,39,.14)" stroke-width="1.2"/><path d="M245.6 584.2L270.7 545.4h6.7L252.3 585.2z" fill="rgba(255,255,255,.5)"/><rect x="302.0" y="124.1" width="41.7" height="49.8" rx="3" fill="rgba(186,230,253,0.8107406139373781)" stroke="rgba(17,24,39,.14)" stroke-width="1.2"/><rect x="302.0" y="193.5" width="41.7" height="49.8" rx="3" fill="rgba(186,230,253,0.805433237552643)" stroke="rgba(17,24,39,.14)" stroke-width="1.2"/><rect x="302.0" y="262.9" width="41.7" height="49.8" rx="3" fill="rgba(186,230,253,0.7317877769470216)" stroke="rgba(17,24,39,.14)" stroke-width="1.2"/><rect x="302.0" y="332.3" width="41.7" height="49.8" rx="3" fill="rgba(186,230,253,0.8724898457527162)" stroke="rgba(17,24,39,.14)" stroke-width="1.2"/><path d="M307.0 376.1L332.0 337.3h6.7L313.7 377.1z" fill="rgba(255,255,255,.5)"/><rect x="302.0" y="401.7" width="41.7" height="49.8" rx="3" fill="rgba(186,230,253,0.556203317642212)" stroke="rgba(17,24,39,.14)" stroke-width="1.2"/><path d="M307.0 445.4L332.0 406.6h6.7L313.7 446.4z" fill="rgba(255,255,255,.5)"/><rect x="302.0" y="471.0" width="41.7" height="49.8" rx="3" fill="rgba(186,230,253,0.5987089633941651)" stroke="rgba(17,24,39,.14)" stroke-width="1.2"/><rect x="302.0" y="540.4" width="41.7" height="49.8" rx="3" fill="rgba(186,230,253,0.9487457513809205)" stroke="rgba(17,24,39,.14)" stroke-width="1.2"/><path d="M307.0 584.2L332.0 545.4h6.7L313.7 585.2z" fill="rgba(255,255,255,.5)"/><rect x="363.3" y="124.1" width="41.7" height="49.8" rx="3" fill="rgba(186,230,253,0.6600325584411622)" stroke="rgba(17,24,39,.14)" stroke-width="1.2"/><rect x="363.3" y="193.5" width="41.7" height="49.8" rx="3" fill="rgba(186,230,253,0.5604575276374817)" stroke="rgba(17,24,39,.14)" stroke-width="1.2"/><path d="M368.3 237.3L393.4 198.5h6.7L375.0 238.3z" fill="rgba(255,255,255,.5)"/><rect x="363.3" y="262.9" width="41.7" height="49.8" rx="3" fill="rgba(186,230,253,0.5961883544921875)" stroke="rgba(17,24,39,.14)" stroke-width="1.2"/><rect x="363.3" y="332.3" width="41.7" height="49.8" rx="3" fill="rgba(186,230,253,0.830346441268921)" stroke="rgba(17,24,39,.14)" stroke-width="1.2"/><path d="M368.3 376.1L393.4 337.3h6.7L375.0 377.1z" fill="rgba(255,255,255,.5)"/><rect x="363.3" y="401.7" width="41.7" height="49.8" rx="3" fill="rgba(186,230,253,0.7791818141937257)" stroke="rgba(17,24,39,.14)" stroke-width="1.2"/><path d="M368.3 445.4L393.4 406.6h6.7L375.0 446.4z" fill="rgba(255,255,255,.5)"/><rect x="363.3" y="471.0" width="41.7" height="49.8" rx="3" fill="rgba(186,230,253,0.8426381587982179)" stroke="rgba(17,24,39,.14)" stroke-width="1.2"/><path d="M368.3 514.8L393.4 476.0h6.7L375.0 515.8z" fill="rgba(255,255,255,.5)"/><rect x="363.3" y="540.4" width="41.7" height="49.8" rx="3" fill="rgba(186,230,253,0.5584840297698975)" stroke="rgba(17,24,39,.14)" stroke-width="1.2"/><path d="M368.3 584.2L393.4 545.4h6.7L375.0 585.2z" fill="rgba(255,255,255,.5)"/><rect x="433" y="120" width="351" height="480" rx="6" fill="#dcdcdf"/><rect x="443.7" y="130.9" width="95.1" height="46.6" rx="3" fill="rgba(186,230,253,0.6904786586761475)" stroke="rgba(17,24,39,.14)" stroke-width="1.2"/><path d="M455.1 171.9L512.2 135.5h15.2L470.3 172.9z" fill="rgba(255,255,255,.5)"/><rect x="443.7" y="199.5" width="95.1" height="46.6" rx="3" fill="rgba(186,230,253,0.7956037044525147)" stroke="rgba(17,24,39,.14)" stroke-width="1.2"/><rect x="443.7" y="268.0" width="95.1" height="46.6" rx="3" fill="rgba(186,230,253,0.8335382103919984)" stroke="rgba(17,24,39,.14)" stroke-width="1.2"/><rect x="443.7" y="336.6" width="95.1" height="46.6" rx="3" fill="rgba(186,230,253,0.6682591438293457)" stroke="rgba(17,24,39,.14)" stroke-width="1.2"/><rect x="443.7" y="405.2" width="95.1" height="46.6" rx="3" fill="rgba(186,230,253,0.824151337146759)" stroke="rgba(17,24,39,.14)" stroke-width="1.2"/><path d="M455.1 446.3L512.2 409.9h15.2L470.3 447.2z" fill="rgba(255,255,255,.5)"/><rect x="443.7" y="473.8" width="95.1" height="46.6" rx="3" fill="rgba(186,230,253,0.7582966327667237)" stroke="rgba(17,24,39,.14)" stroke-width="1.2"/><rect x="443.7" y="542.4" width="95.1" height="46.6" rx="3" fill="rgba(186,230,253,0.8098015308380128)" stroke="rgba(17,24,39,.14)" stroke-width="1.2"/><path d="M455.1 583.4L512.2 547.1h15.2L470.3 584.4z" fill="rgba(255,255,255,.5)"/><rect x="560.8" y="130.9" width="95.1" height="46.6" rx="3" fill="rgba(186,230,253,0.7969173908233643)" stroke="rgba(17,24,39,.14)" stroke-width="1.2"/><path d="M572.2 171.9L629.3 135.5h15.2L587.4 172.9z" fill="rgba(255,255,255,.5)"/><rect x="560.8" y="199.5" width="95.1" height="46.6" rx="3" fill="rgba(186,230,253,0.7497467517852784)" stroke="rgba(17,24,39,.14)" stroke-width="1.2"/><rect x="560.8" y="268.0" width="95.1" height="46.6" rx="3" fill="rgba(186,230,253,0.5915562152862549)" stroke="rgba(17,24,39,.14)" stroke-width="1.2"/><path d="M572.2 309.1L629.3 272.7h15.2L587.4 310.0z" fill="rgba(255,255,255,.5)"/><rect x="560.8" y="336.6" width="95.1" height="46.6" rx="3" fill="rgba(186,230,253,0.6827657699584961)" stroke="rgba(17,24,39,.14)" stroke-width="1.2"/><path d="M572.2 377.7L629.3 341.3h15.2L587.4 378.6z" fill="rgba(255,255,255,.5)"/><rect x="560.8" y="405.2" width="95.1" height="46.6" rx="3" fill="rgba(186,230,253,0.6690755844116212)" stroke="rgba(17,24,39,.14)" stroke-width="1.2"/><path d="M572.2 446.3L629.3 409.9h15.2L587.4 447.2z" fill="rgba(255,255,255,.5)"/><rect x="560.8" y="473.8" width="95.1" height="46.6" rx="3" fill="rgba(186,230,253,0.7097311019897461)" stroke="rgba(17,24,39,.14)" stroke-width="1.2"/><rect x="560.8" y="542.4" width="95.1" height="46.6" rx="3" fill="rgba(186,230,253,0.5816854476928711)" stroke="rgba(17,24,39,.14)" stroke-width="1.2"/><rect x="677.9" y="130.9" width="95.1" height="46.6" rx="3" fill="rgba(186,230,253,0.6199435710906983)" stroke="rgba(17,24,39,.14)" stroke-width="1.2"/><path d="M689.3 171.9L746.4 135.5h15.2L704.5 172.9z" fill="rgba(255,255,255,.5)"/><rect x="677.9" y="199.5" width="95.1" height="46.6" rx="3" fill="rgba(186,230,253,0.5940533638000489)" stroke="rgba(17,24,39,.14)" stroke-width="1.2"/><rect x="677.9" y="268.0" width="95.1" height="46.6" rx="3" fill="rgba(186,230,253,0.7987993717193604)" stroke="rgba(17,24,39,.14)" stroke-width="1.2"/><rect x="677.9" y="336.6" width="95.1" height="46.6" rx="3" fill="rgba(186,230,253,0.6175696015357972)" stroke="rgba(17,24,39,.14)" stroke-width="1.2"/><path d="M689.3 377.7L746.4 341.3h15.2L704.5 378.6z" fill="rgba(255,255,255,.5)"/><rect x="677.9" y="405.2" width="95.1" height="46.6" rx="3" fill="rgba(186,230,253,0.7174733400344849)" stroke="rgba(17,24,39,.14)" stroke-width="1.2"/><path d="M689.3 446.3L746.4 409.9h15.2L704.5 447.2z" fill="rgba(255,255,255,.5)"/><rect x="677.9" y="473.8" width="95.1" height="46.6" rx="3" fill="rgba(186,230,253,0.665238094329834)" stroke="rgba(17,24,39,.14)" stroke-width="1.2"/><path d="M689.3 514.8L746.4 478.5h15.2L704.5 515.8z" fill="rgba(255,255,255,.5)"/><rect x="677.9" y="542.4" width="95.1" height="46.6" rx="3" fill="rgba(186,230,253,0.6300856590270997)" stroke="rgba(17,24,39,.14)" stroke-width="1.2"/>
<circle cx="393" cy="536" r="2.4" fill="rgba(255,255,255,.75)"/><circle cx="283" cy="304" r="2.6" fill="rgba(255,255,255,.75)"/><circle cx="521" cy="248" r="3.7" fill="rgba(255,255,255,.75)"/><circle cx="417" cy="392" r="3.1" fill="rgba(255,255,255,.75)"/><circle cx="191" cy="475" r="4.6" fill="rgba(255,255,255,.75)"/><circle cx="231" cy="189" r="3.3" fill="rgba(255,255,255,.75)"/><circle cx="310" cy="312" r="4.9" fill="rgba(255,255,255,.75)"/><circle cx="297" cy="417" r="4.8" fill="rgba(255,255,255,.75)"/><circle cx="306" cy="237" r="2.7" fill="rgba(255,255,255,.75)"/><circle cx="458" cy="297" r="2.3" fill="rgba(255,255,255,.75)"/><circle cx="180" cy="338" r="5.2" fill="rgba(255,255,255,.75)"/><circle cx="546" cy="332" r="3.7" fill="rgba(255,255,255,.75)"/><circle cx="631" cy="193" r="3.7" fill="rgba(255,255,255,.75)"/><circle cx="256" cy="269" r="1.9" fill="rgba(255,255,255,.75)"/><circle cx="465" cy="236" r="2.2" fill="rgba(255,255,255,.75)"/><circle cx="582" cy="444" r="3.6" fill="rgba(255,255,255,.75)"/><circle cx="527" cy="194" r="3.6" fill="rgba(255,255,255,.75)"/><circle cx="235" cy="223" r="2.5" fill="rgba(255,255,255,.75)"/><circle cx="241" cy="484" r="4.7" fill="rgba(255,255,255,.75)"/><circle cx="539" cy="349" r="2.5" fill="rgba(255,255,255,.75)"/><circle cx="211" cy="303" r="3.5" fill="rgba(255,255,255,.75)"/><circle cx="456" cy="209" r="2.4" fill="rgba(255,255,255,.75)"/><circle cx="219" cy="422" r="3.4" fill="rgba(255,255,255,.75)"/><circle cx="578" cy="409" r="4.7" fill="rgba(255,255,255,.75)"/><circle cx="294" cy="399" r="1.6" fill="rgba(255,255,255,.75)"/><circle cx="185" cy="248" r="1.6" fill="rgba(255,255,255,.75)"/><rect x="64" y="372" width="128" height="12" rx="6" fill="#facc15"/>

<g><rect x="0" y="538" width="800" height="62" fill="rgba(17,24,39,.62)"/><text x="28" y="576" font-family="system-ui, sans-serif" font-size="20" font-weight="600" fill="#ffffff">정기 관리</text></g>
</svg>