<svg xmlns="http://www.w3.org/2000/svg" viewBox="0 0 800 600" width="800" height="600" role="img">
<defs><linearGradient id="sky" x1="0" y1="0" x2="0" y2="1"><stop offset="0" stop-color="#dbeafe"/><stop offset="1" stop-color="#fffdf7"/></linearGradient></defs>
<rect width="800" height="600" fill="url(#sky)"/>
<circle cx="652" cy="90" r="54" fill="#facc15" opacity=".55"/>
<rect x="41" y="177" width="238" height="423" rx="6" fill="#e7e5e4"/><rect x="50.6" y="186.4" width="40.4" height="51.5" rx="3" fill="rgba(186,230,253,0.5744641780853272)" stroke="rgba(17,24,39,.14)" stroke-width="1.2"/><path d="M55.4 231.7L79.7 191.5h6.5L61.9 232.7z" fill="rgba(255,255,255,.5)"/><rect x="50.6" y="256.9" width="40.4" height="51.5" rx="3" fill="rgba(186,230,253,0.564127254486084)" stroke="rgba(17,24,39,.14)" stroke-width="1.2"/><path d="M55.4 302.2L79.7 262.0h6.5L61.9 303.3z" fill="rgba(255,255,255,.5)"/><rect x="50.6" y="327.4" width="40.4" height="51.5" rx="3" fill="rgba(186,230,253,0.5746243000030518)" stroke="rgba(17,24,39,.14)" stroke-width="1.2"/><rect x="50.6" y="397.9" width="40.4" height="51.5" rx="3" fill="rgba(186,230,253,0.881086564064026)" stroke="rgba(17,24,39,.14)" stroke-width="1.2"/><rect x="50.6" y="468.5" width="40.4" height="51.5" rx="3" fill="rgba(186,230,253,0.7350171208381653)" stroke="rgba(17,24,39,.14)" stroke-width="1.2"/><path d="M55.4 513.8L79.7 473.6h6.5L61.9 514.8z" fill="rgba(255,255,255,.5)"/><rect x="50.6" y="539.0" width="40.4" height="51.5" rx="3" fill="rgba(186,230,253,0.7718601703643799)" stroke="rgba(17,24,39,.14)" stroke-width="1.2"/><path d="M55.4 584.3L79.7 544.1h6.5L61.9 585.3z" fill="rgba(255,255,255,.5)"/><rect x="110.0" y="186.4" width="40.4" height="51.5" rx="3" fill="rgba(186,230,253,0.762879228591919)" stroke="rgba(17,24,39,.14)" stroke-width="1.2"/><rect x="110.0" y="256.9" width="40.4" height="51.5" rx="3" fill="rgba(186,230,253,0.6052319169044496)" stroke="rgba(17,24,39,.14)" stroke-width="1.2"/><path d="M114.8 302.2L139.1 262.0h6.5L121.3 303.3z" fill="rgba(255,255,255,.5)"/><rect x="110.0" y="327.4" width="40.4" height="51.5" rx="3" fill="rgba(186,230,253,0.6961375236511231)" stroke="rgba(17,24,39,.14)" stroke-width="1.2"/><rect x="110.0" y="397.9" width="40.4" height="51.5" rx="3" fill="rgba(186,230,253,0.9036273121833802)" stroke="rgba(17,24,39,.14)" stroke-width="1.2"/><rect x="110.0" y="468.5" width="40.4" height="51.5" rx="3" fill="rgba(186,230,253,0.6391138672828675)" stroke="rgba(17,24,39,.14)" stroke-width="1.2"/><path d="M114.8 513.8L139.1 473.6h6.5L121.3 514.8z" fill="rgba(255,255,255,.5)"/><rect x="110.0" y="539.0" width="40.4" height="51.5" rx="3" fill="rgba(186,230,253,0.5907540321350098)" stroke="rgba(17,24,39,.14)" stroke-width="1.2"/><rect x="169.4" y="186.4" width="40.4" height="51.5" rx="3" fill="rgba(186,230,253,0.7295179843902588)" stroke="rgba(17,24,39,.14)" stroke-width="1.2"/><rect x="169.4" y="256.9" width="40.4" height="51.5" rx="3" fill="rgba(186,230,253,0.7436098575592042)" stroke="rgba(17,24,39,.14)" stroke-width="1.2"/><path d="M174.2 302.2L198.4 262.0h6.5L180.7 303.3z" fill="rgba(255,255,255,.5)"/><rect x="169.4" y="327.4" width="40.4" height="51.5" rx="3" fill="rgba(186,230,253,0.831264352798462)" stroke="rgba(17,24,39,.14)" stroke-width="1.2"/><path d="M174.2 372.8L198.4 332.6h6.5L180.7 373.8z" fill="rgba(255,255,255,.5)"/><rect x="169.4" y="397.9" width="40.4" height="51.5" rx="3" fill="rgba(186,230,253,0.7758066654205322)" stroke="rgba(17,24,39,.14)" stroke-width="1.2"/><rect x="169.4" y="468.5" width="40.4" height="51.5" rx="3" fill="rgba(186,230,253,0.8388823032379151)" stroke="rgba(17,24,39,.14)" stroke-width="1.2"/><rect x="169.4" y="539.0" width="40.4" height="51.5" rx="3" fill="rgba(186,230,253,0.8057695984840394)" stroke="rgba(17,24,39,.14)" stroke-width="1.2"/><path d="M174.2 584.3L198.4 544.1h6.5L180.7 585.3z" fill="rgba(255,255,255,.5)"/><rect x="228.8" y="186.4" width="40.4" height="51.5" rx="3" fill="rgba(186,230,253,0.7152990341186524)" stroke="rgba(17,24,39,.14)" stroke-width="1.2"/><rect x="228.8" y="256.9" width="40.4" height="51.5" rx="3" fill="rgba(186,230,253,0.8764745712280274)" stroke="rgba(17,24,39,.14)" stroke-width="1.2"/><rect x="228.8" y="327.4" width="40.4" height="51.5" rx="3" fill="rgba(186,230,253,0.7842809796333313)" stroke="rgba(17,24,39,.14)" stroke-width="1.2"/><path d="M233.6 372.8L257.8 332.6h6.5L240.1 373.8z" fill="rgba(255,255,255,.5)"/><rect x="228.8" y="397.9" width="40.4" height="51.5" rx="3" fill="rgba(186,230,253,0.6354344844818116)" stroke="rgba(17,24,39,.14)" stroke-width="1.2"/><rect x="228.8" y="468.5" width="40.4" height="51.5" rx="3" fill="rgba(186,230,253,0.5593688249588014)" stroke="rgba(17,24,39,.14)" stroke-width="1.2"/><path d="M233.6 513.8L257.8 473.6h6.5L240.1 514.8z" fill="rgba(255,255,255,.5)"/><rect x="228.8" y="539.0" width="40.4" height="51.5" rx="3" fill="rgba(186,230,253,0.5874226570129395)" stroke="rgba(17,24,39,.14)" stroke-width="1.2"/><rect x="300" y="61" width="231" height="539" rx="6" fill="#d4d4d8"/><rect x="308.9" y="69.7" width="39.2" height="58.6" rx="3" fill="rgba(186,230,253,0.793590784072876)" stroke="rgba(17,24,39,.14)" stroke-width="1.2"/><rect x="308.9" y="146.8" width="39.2" height="58.6" rx="3" fill="rgba(186,230,253,0.8273085117340089)" stroke="rgba(17,24,39,.14)" stroke-width="1.2"/><path d="M313.6 198.4L337.1 152.7h6.3L319.9 199.6z" fill="rgba(255,255,255,.5)"/><rect x="308.9" y="223.9" width="39.2" height="58.6" rx="3" fill="rgba(186,230,253,0.7053652286529541)" stroke="rgba(17,24,39,.14)" stroke-width="1.2"/><path d="M313.6 275.5L337.1 229.7h6.3L319.9 276.6z" fill="rgba(255,255,255,.5)"/><rect x="308.9" y="300.9" width="39.2" height="58.6" rx="3" fill="rgba(186,230,253,0.659328317642212)" stroke="rgba(17,24,39,.14)" stroke-width="1.2"/><rect x="308.9" y="378.0" width="39.2" height="58.6" rx="3" fill="rgba(186,230,253,0.7162729859352113)" stroke="rgba(17,24,39,.14)" stroke-width="1.2"/><rect x="308.9" y="455.1" width="39.2" height="58.6" rx="3" fill="rgba(186,230,253,0.9037016019225121)" stroke="rgba(17,24,39,.14)" stroke-width="1.2"/><path d="M313.6 506.7L337.1 460.9h6.3L319.9 507.8z" fill="rgba(255,255,255,.5)"/><rect x="308.9" y="532.2" width="39.2" height="58.6" rx="3" fill="rgba(186,230,253,0.8241487503051759)" stroke="rgba(17,24,39,.14)" stroke-width="1.2"/><rect x="366.6" y="69.7" width="39.2" height="58.6" rx="3" fill="rgba(186,230,253,0.7469057083129883)" stroke="rgba(17,24,39,.14)" stroke-width="1.2"/><rect x="366.6" y="146.8" width="39.2" height="58.6" rx="3" fill="rgba(186,230,253,0.6066987991333008)" stroke="rgba(17,24,39,.14)" stroke-width="1.2"/><rect x="366.6" y="223.9" width="39.2" height="58.6" rx="3" fill="rgba(186,230,253,0.7227126836776734)" stroke="rgba(17,24,39,.14)" stroke-width="1.2"/><path d="M371.3 275.5L394.8 229.7h6.3L377.5 276.6z" fill="rgba(255,255,255,.5)"/><rect x="366.6" y="300.9" width="39.2" height="58.6" rx="3" fill="rgba(186,230,253,0.6025030136108399)" stroke="rgba(17,24,39,.14)" stroke-width="1.2"/><path d="M371.3 352.5L394.8 306.8h6.3L377.5 353.7z" fill="rgba(255,255,255,.5)"/><rect x="366.6" y="378.0" width="39.2" height="58.6" rx="3" fill="rgba(186,230,253,0.917506742477417)" stroke="rgba(17,24,39,.14)" stroke-width="1.2"/><rect x="366.6" y="455.1" width="39.2" height="58.6" rx="3" fill="rgba(186,230,253,0.8137282848358155)" stroke="rgba(17,24,39,.14)" stroke-width="1.2"/><rect x="366.6" y="532.2" width="39.2" height="58.6" rx="3" fill="rgba(186,230,253,0.9050761818885804)" stroke="rgba(17,24,39,.14)" stroke-width="1.2"/><path d="M371.3 583.7L394.8 538.0h6.3L377.5 584.9z" fill="rgba(255,255,255,.5)"/><rect x="424.2" y="69.7" width="39.2" height="58.6" rx="3" fill="rgba(186,230,253,0.7177344322204591)" stroke="rgba(17,24,39,.14)" stroke-width="1.2"/><path d="M428.9 121.3L452.4 75.6h6.3L435.2 122.5z" fill="rgba(255,255,255,.5)"/><rect x="424.2" y="146.8" width="39.2" height="58.6" rx="3" fill="rgba(186,230,253,0.5578261375427247)" stroke="rgba(17,24,39,.14)" stroke-width="1.2"/><rect x="424.2" y="223.9" width="39.2" height="58.6" rx="3" fill="rgba(186,230,253,0.7534068107604981)" stroke="rgba(17,24,39,.14)" stroke-width="1.2"/><path d="M428.9 275.5L452.4 229.7h6.3L435.2 276.6z" fill="rgba(255,255,255,.5)"/><rect x="424.2" y="300.9" width="39.2" height="58.6" rx="3" fill="rgba(186,230,253,0.7012774467468262)" stroke="rgba(17,24,39,.14)" stroke-width="1.2"/><path d="M428.9 352.5L452.4 306.8h6.3L435.2 353.7z" fill="rgba(255,255,255,.5)"/><rect x="424.2" y="378.0" width="39.2" height="58.6" rx="3" fill="rgba(186,230,253,0.5796473503112793)" stroke="rgba(17,24,39,.14)" stroke-width="1.2"/><path d="M428.9 429.6L452.4 383.9h6.3L435.2 430.8z" fill="rgba(255,255,255,.5)"/><rect x="424.2" y="455.1" width="39.2" height="58.6" rx="3" fill="rgba(186,230,253,0.7184921741485596)" stroke="rgba(17,24,39,.14)" stroke-width="1.2"/><rect x="424.2" y="532.2" width="39.2" height="58.6" rx="3" fill="rgba(186,230,253,0.9293568253517152)" stroke="rgba(17,24,39,.14)" stroke-width="1.2"/><rect x="481.9" y="69.7" width="39.2" height="58.6" rx="3" fill="rgba(186,230,253,0.8197898983955384)" stroke="rgba(17,24,39,.14)" stroke-width="1.2"/><path d="M486.6 121.3L510.1 75.6h6.3L492.8 122.5z" fill="rgba(255,255,255,.5)"/><rect x="481.9" y="146.8" width="39.2" height="58.6" rx="3" fill="rgba(186,230,253,0.8924842357635498)" stroke="rgba(17,24,39,.14)" stroke-width="1.2"/><rect x="481.9" y="223.9" width="39.2" height="58.6" rx="3" fill="rgba(186,230,253,0.7490603923797607)" stroke="rgba(17,24,39,.14)" stroke-width="1.2"/><rect x="481.9" y="300.9" width="39.2" height="58.6" rx="3" fill="rgba(186,230,253,0.8979552865028382)" stroke="rgba(17,24,39,.14)" stroke-width="1.2"/><rect x="481.9" y="378.0" width="39.2" height="58.6" rx="3" fill="rgba(186,230,253,0.6858607411384583)" stroke="rgba(17,24,39,.14)" stroke-width="1.2"/><path d="M486.6 429.6L510.1 383.9h6.3L492.8 430.8z" fill="rgba(255,255,255,.5)"/><rect x="481.9" y="455.1" width="39.2" height="58.6" rx="3" fill="rgba(186,230,253,0.6443270206451417)" stroke="rgba(17,24,39,.14)" stroke-width="1.2"/><rect x="481.9" y="532.2" width="39.2" height="58.6" rx="3" fill="rgba(186,230,253,0.6349308013916016)" stroke="rgba(17,24,39,.14)" stroke-width="1.2"/><rect x="548" y="160" width="236" height="440" rx="6" fill="#dcdcdf"/><rect x="559.6" y="171.6" width="55.2" height="49.9" rx="3" fill="rgba(186,230,253,0.7305299282073975)" stroke="rgba(17,24,39,.14)" stroke-width="1.2"/><path d="M566.2 215.5L599.4 176.6h8.8L575.1 216.5z" fill="rgba(255,255,255,.5)"/><rect x="559.6" y="244.9" width="55.2" height="49.9" rx="3" fill="rgba(186,230,253,0.7822370052337647)" stroke="rgba(17,24,39,.14)" stroke-width="1.2"/><rect x="559.6" y="318.3" width="55.2" height="49.9" rx="3" fill="rgba(186,230,253,0.8612847805023194)" stroke="rgba(17,24,39,.14)" stroke-width="1.2"/><rect x="559.6" y="391.7" width="55.2" height="49.9" rx="3" fill="rgba(186,230,253,0.8907933831214905)" stroke="rgba(17,24,39,.14)" stroke-width="1.2"/><rect x="559.6" y="465.0" width="55.2" height="49.9" rx="3" fill="rgba(186,230,253,0.8579819798469543)" stroke="rgba(17,24,39,.14)" stroke-width="1.2"/><path d="M566.2 508.9L599.4 470.0h8.8L575.1 509.9z" fill="rgba(255,255,255,.5)"/><rect x="559.6" y="538.4" width="55.2" height="49.9" rx="3" fill="rgba(186,230,253,0.6997719287872315)" stroke="rgba(17,24,39,.14)" stroke-width="1.2"/><path d="M566.2 582.3L599.4 543.4h8.8L575.1 583.3z" fill="rgba(255,255,255,.5)"/><rect x="638.3" y="171.6" width="55.2" height="49.9" rx="3" fill="rgba(186,230,253,0.836777925491333)" stroke="rgba(17,24,39,.14)" stroke-width="1.2"/><path d="M644.9 215.5L678.1 176.6h8.8L653.8 216.5z" fill="rgba(255,255,255,.5)"/><rect x="638.3" y="244.9" width="55.2" height="49.9" rx="3" fill="rgba(186,230,253,0.5968216419219972)" stroke="rgba(17,24,39,.14)" stroke-width="1.2"/><rect x="638.3" y="318.3" width="55.2" height="49.9" rx="3" fill="rgba(186,230,253,0.5698152780532837)" stroke="rgba(17,24,39,.14)" stroke-width="1.2"/><path d="M644.9 362.2L678.1 323.3h8.8L653.8 363.2z" fill="rgba(255,255,255,.5)"/><rect x="638.3" y="391.7" width="55.2" height="49.9" rx="3" fill="rgba(186,230,253,0.6071329116821289)" stroke="rgba(17,24,39,.14)" stroke-width="1.2"/><path d="M644.9 435.6L678.1 396.6h8.8L653.8 436.6z" fill="rgba(255,255,255,.5)"/><rect x="638.3" y="465.0" width="55.2" height="49.9" rx="3" fill="rgba(186,230,253,0.7827476024627686)" stroke="rgba(17,24,39,.14)" stroke-width="1.2"/><path d="M644.9 508.9L678.1 470.0h8.8L653.8 509.9z" fill="rgba(255,255,255,.5)"/><rect x="638.3" y="538.4" width="55.2" height="49.9" rx="3" fill="rgba(186,230,253,0.7696826457977295)" stroke="rgba(17,24,39,.14)" stroke-width="1.2"/><path d="M644.9 582.3L678.1 543.4h8.8L653.8 583.3z" fill="rgba(255,255,255,.5)"/><rect x="717.0" y="171.6" width="55.2" height="49.9" rx="3" fill="rgba(186,230,253,0.675010633468628)" stroke="rgba(17,24,39,.14)" stroke-width="1.2"/><path d="M723.7 215.5L756.8 176.6h8.8L732.5 216.5z" fill="rgba(255,255,255,.5)"/><rect x="717.0" y="244.9" width="55.2" height="49.9" rx="3" fill="rgba(186,230,253,0.735035276412964)" stroke="rgba(17,24,39,.14)" stroke-width="1.2"/><path d="M723.7 288.8L756.8 249.9h8.8L732.5 289.8z" fill="rgba(255,255,255,.5)"/><rect x="717.0" y="318.3" width="55.2" height="49.9" rx="3" fill="rgba(186,230,253,0.5991462230682374)" stroke="rgba(17,24,39,.14)" stroke-width="1.2"/><path d="M723.7 362.2L756.8 323.3h8.8L732.5 363.2z" fill="rgba(255,255,255,.5)"/><rect x="717.0" y="391.7" width="55.2" height="49.9" rx="3" fill="rgba(186,230,253,0.9456833839416505)" stroke="rgba(17,24,39,.14)" stroke-width="1.2"/><path d="M723.7 435.6L756.8 396.6h8.8L732.5 436.6z" fill="rgba(255,255,255,.5)"/><rect x="717.0" y="465.0" width="55.2" height="49.9" rx="3" fill="rgba(186,230,253,0.8769387245178224)" stroke="rgba(17,24,39,.14)" stroke-width="1.2"/><path d="M723.7 508.9L756.8 470.0h8.8L732.5 509.9z" fill="rgba(255,255,255,.5)"/><rect x="717.0" y="538.4" width="55.2" height="49.9" rx="3" fill="rgba(186,230,253,0.5692963600158691)" stroke="rgba(17,24,39,.14)" stroke-width="1.2"/><path d="M723.7 582.3L756.8 543.4h8.8L732.5 583.3z" fill="rgba(255,255,255,.5)"/>
<rect x="128" y="336.00000000000006" width="544" height="96" rx="8" fill="#facc15"/><path d="M128 444h544l-48 72h-448.00000000000006z" fill="#fde68a"/>

<g><rect x="0" y="538" width="800" height="62" fill="rgba(17,24,39,.62)"/><text x="28" y="576" font-family="system-ui, sans-serif" font-size="20" font-weight="600" fill="#ffffff">간판 · 어닝 청소</text></g>
</svg>