<svg xmlns="http://www.w3.org/2000/svg" viewBox="0 0 800 600" width="800" height="600" role="img">
<defs><linearGradient id="sky" x1="0" y1="0" x2="0" y2="1"><stop offset="0" stop-color="#dbeafe"/><stop offset="1" stop-color="#fffdf7"/></linearGradient></defs>
<rect width="800" height="600" fill="url(#sky)"/>
<circle cx="667" cy="101" r="57" fill="#facc15" opacity=".55"/>
<rect x="29" y="120" width="152" height="480" rx="6" fill="#e7e5e4"/><rect x="40.2" y="131.2" width="54.1" height="46.6" rx="3" fill="rgba(186,230,253,0.8129531979560853)" stroke="rgba(17,24,39,.14)" stroke-width="1.2"/><path d="M46.7 172.2L79.1 135.8h8.7L55.3 173.1z" fill="rgba(255,255,255,.5)"/><rect x="40.2" y="199.7" width="54.1" height="46.6" rx="3" fill="rgba(186,230,253,0.9445525646209718)" stroke="rgba(17,24,39,.14)" stroke-width="1.2"/><rect x="40.2" y="268.3" width="54.1" height="46.6" rx="3" fill="rgba(186,230,253,0.677739155292511)" stroke="rgba(17,24,39,.14)" stroke-width="1.2"/><rect x="40.2" y="336.8" width="54.1" height="46.6" rx="3" fill="rgba(186,230,253,0.8936601281166077)" stroke="rgba(17,24,39,.14)" stroke-width="1.2"/><rect x="40.2" y="405.3" width="54.1" height="46.6" rx="3" fill="rgba(186,230,253,0.7275448918342591)" stroke="rgba(17,24,39,.14)" stroke-width="1.2"/><rect x="40.2" y="473.9" width="54.1" height="46.6" rx="3" fill="rgba(186,230,253,0.8021198853850365)" stroke="rgba(17,24,39,.14)" stroke-width="1.2"/><path d="M46.7 514.9L79.1 478.5h8.7L55.3 515.8z" fill="rgba(255,255,255,.5)"/><rect x="40.2" y="542.4" width="54.1" height="46.6" rx="3" fill="rgba(186,230,253,0.5817257404327393)" stroke="rgba(17,24,39,.14)" stroke-width="1.2"/><path d="M46.7 583.4L79.1 547.1h8.7L55.3 584.4z" fill="rgba(255,255,255,.5)"/><rect x="116.2" y="131.2" width="54.1" height="46.6" rx="3" fill="rgba(186,230,253,0.7939252853393555)" stroke="rgba(17,24,39,.14)" stroke-width="1.2"/><path d="M122.7 172.2L155.1 135.8h8.7L131.3 173.1z" fill="rgba(255,255,255,.5)"/><rect x="116.2" y="199.7" width="54.1" height="46.6" rx="3" fill="rgba(186,230,253,0.5935590744018555)" stroke="rgba(17,24,39,.14)" stroke-width="1.2"/><path d="M122.7 240.7L155.1 204.4h8.7L131.3 241.7z" fill="rgba(255,255,255,.5)"/><rect x="116.2" y="268.3" width="54.1" height="46.6" rx="3" fill="rgba(186,230,253,0.6725337505340576)" stroke="rgba(17,24,39,.14)" stroke-width="1.2"/><rect x="116.2" y="336.8" width="54.1" height="46.6" rx="3" fill="rgba(186,230,253,0.5763297557830811)" stroke="rgba(17,24,39,.14)" stroke-width="1.2"/><rect x="116.2" y="405.3" width="54.1" height="46.6" rx="3" fill="rgba(186,230,253,0.8335480690002441)" stroke="rgba(17,24,39,.14)" stroke-width="1.2"/><rect x="116.2" y="473.9" width="54.1" height="46.6" rx="3" fill="rgba(186,230,253,0.8800744175910951)" stroke="rgba(17,24,39,.14)" stroke-width="1.2"/><path d="M122.7 514.9L155.1 478.5h8.7L131.3 515.8z" fill="rgba(255,255,255,.5)"/><rect x="116.2" y="542.4" width="54.1" height="46.6" rx="3" fill="rgba(186,230,253,0.8917435169219972)" stroke="rgba(17,24,39,.14)" stroke-width="1.2"/><rect x="193" y="245" width="206" height="355" rx="6" fill="#d4d4d8"/><rect x="204.1" y="255.8" width="46.7" height="49.1" rx="3" fill="rgba(186,230,253,0.5816853150725365)" stroke="rgba(17,24,39,.14)" stroke-width="1.2"/><path d="M209.7 299.0L237.7 260.7h7.5L217.1 300.0z" fill="rgba(255,255,255,.5)"/><rect x="204.1" y="326.8" width="46.7" height="49.1" rx="3" fill="rgba(186,230,253,0.8010592937469483)" stroke="rgba(17,24,39,.14)" stroke-width="1.2"/><rect x="204.1" y="397.9" width="46.7" height="49.1" rx="3" fill="rgba(186,230,253,0.7625274300575257)" stroke="rgba(17,24,39,.14)" stroke-width="1.2"/><path d="M209.7 441.0L237.7 402.8h7.5L217.1 442.0z" fill="rgba(255,255,255,.5)"/><rect x="204.1" y="468.9" width="46.7" height="49.1" rx="3" fill="rgba(186,230,253,0.5581233024597169)" stroke="rgba(17,24,39,.14)" stroke-width="1.2"/><rect x="204.1" y="539.9" width="46.7" height="49.1" rx="3" fill="rgba(186,230,253,0.6500388145446778)" stroke="rgba(17,24,39,.14)" stroke-width="1.2"/><rect x="272.7" y="255.8" width="46.7" height="49.1" rx="3" fill="rgba(186,230,253,0.8177550315856934)" stroke="rgba(17,24,39,.14)" stroke-width="1.2"/><rect x="272.7" y="326.8" width="46.7" height="49.1" rx="3" fill="rgba(186,230,253,0.572098457813263)" stroke="rgba(17,24,39,.14)" stroke-width="1.2"/><path d="M278.3 370.0L306.4 331.7h7.5L285.8 371.0z" fill="rgba(255,255,255,.5)"/><rect x="272.7" y="397.9" width="46.7" height="49.1" rx="3" fill="rgba(186,230,253,0.594883155822754)" stroke="rgba(17,24,39,.14)" stroke-width="1.2"/><path d="M278.3 441.0L306.4 402.8h7.5L285.8 442.0z" fill="rgba(255,255,255,.5)"/><rect x="272.7" y="468.9" width="46.7" height="49.1" rx="3" fill="rgba(186,230,253,0.5621482372283936)" stroke="rgba(17,24,39,.14)" stroke-width="1.2"/><path d="M278.3 512.1L306.4 473.8h7.5L285.8 513.1z" fill="rgba(255,255,255,.5)"/><rect x="272.7" y="539.9" width="46.7" height="49.1" rx="3" fill="rgba(186,230,253,0.6079352855682374)" stroke="rgba(17,24,39,.14)" stroke-width="1.2"/><rect x="341.4" y="255.8" width="46.7" height="49.1" rx="3" fill="rgba(186,230,253,0.7685349702835084)" stroke="rgba(17,24,39,.14)" stroke-width="1.2"/><rect x="341.4" y="326.8" width="46.7" height="49.1" rx="3" fill="rgba(186,230,253,0.7205665707588196)" stroke="rgba(17,24,39,.14)" stroke-width="1.2"/><path d="M347.0 370.0L375.0 331.7h7.5L354.5 371.0z" fill="rgba(255,255,255,.5)"/><rect x="341.4" y="397.9" width="46.7" height="49.1" rx="3" fill="rgba(186,230,253,0.8935660839080811)" stroke="rgba(17,24,39,.14)" stroke-width="1.2"/><rect x="341.4" y="468.9" width="46.7" height="49.1" rx="3" fill="rgba(186,230,253,0.913435709476471)" stroke="rgba(17,24,39,.14)" stroke-width="1.2"/><path d="M347.0 512.1L375.0 473.8h7.5L354.5 513.1z" fill="rgba(255,255,255,.5)"/><rect x="341.4" y="539.9" width="46.7" height="49.1" rx="3" fill="rgba(186,230,253,0.8615004539489747)" stroke="rgba(17,24,39,.14)" stroke-width="1.2"/><rect x="409" y="141" width="375" height="459" rx="6" fill="#dcdcdf"/><rect x="420.8" y="152.8" width="69.4" height="52.1" rx="3" fill="rgba(186,230,253,0.7848990440368653)" stroke="rgba(17,24,39,.14)" stroke-width="1.2"/><rect x="420.8" y="229.4" width="69.4" height="52.1" rx="3" fill="rgba(186,230,253,0.9077666282653809)" stroke="rgba(17,24,39,.14)" stroke-width="1.2"/><rect x="420.8" y="306.0" width="69.4" height="52.1" rx="3" fill="rgba(186,230,253,0.6405036091804505)" stroke="rgba(17,24,39,.14)" stroke-width="1.2"/><rect x="420.8" y="382.5" width="69.4" height="52.1" rx="3" fill="rgba(186,230,253,0.5821115374565125)" stroke="rgba(17,24,39,.14)" stroke-width="1.2"/><path d="M429.2 428.4L470.8 387.7h11.1L440.3 429.4z" fill="rgba(255,255,255,.5)"/><rect x="420.8" y="459.1" width="69.4" height="52.1" rx="3" fill="rgba(186,230,253,0.7862833499908448)" stroke="rgba(17,24,39,.14)" stroke-width="1.2"/><rect x="420.8" y="535.7" width="69.4" height="52.1" rx="3" fill="rgba(186,230,253,0.5717466950416565)" stroke="rgba(17,24,39,.14)" stroke-width="1.2"/><path d="M429.2 581.5L470.8 540.9h11.1L440.3 582.5z" fill="rgba(255,255,255,.5)"/><rect x="514.7" y="152.8" width="69.4" height="52.1" rx="3" fill="rgba(186,230,253,0.8838025093078614)" stroke="rgba(17,24,39,.14)" stroke-width="1.2"/><path d="M523.0 198.6L564.6 158.0h11.1L534.1 199.7z" fill="rgba(255,255,255,.5)"/><rect x="514.7" y="229.4" width="69.4" height="52.1" rx="3" fill="rgba(186,230,253,0.7378453254699707)" stroke="rgba(17,24,39,.14)" stroke-width="1.2"/><path d="M523.0 275.2L564.6 234.6h11.1L534.1 276.3z" fill="rgba(255,255,255,.5)"/><rect x="514.7" y="306.0" width="69.4" height="52.1" rx="3" fill="rgba(186,230,253,0.6963253974914552)" stroke="rgba(17,24,39,.14)" stroke-width="1.2"/><rect x="514.7" y="382.5" width="69.4" height="52.1" rx="3" fill="rgba(186,230,253,0.5550923466682435)" stroke="rgba(17,24,39,.14)" stroke-width="1.2"/><path d="M523.0 428.4L564.6 387.7h11.1L534.1 429.4z" fill="rgba(255,255,255,.5)"/><rect x="514.7" y="459.1" width="69.4" height="52.1" rx="3" fill="rgba(186,230,253,0.8909498214721681)" stroke="rgba(17,24,39,.14)" stroke-width="1.2"/><rect x="514.7" y="535.7" width="69.4" height="52.1" rx="3" fill="rgba(186,230,253,0.676447868347168)" stroke="rgba(17,24,39,.14)" stroke-width="1.2"/><rect x="608.5" y="152.8" width="69.4" height="52.1" rx="3" fill="rgba(186,230,253,0.8287428021430969)" stroke="rgba(17,24,39,.14)" stroke-width="1.2"/><path d="M616.9 198.6L658.5 158.0h11.1L628.0 199.7z" fill="rgba(255,255,255,.5)"/><rect x="608.5" y="229.4" width="69.4" height="52.1" rx="3" fill="rgba(186,230,253,0.666816520690918)" stroke="rgba(17,24,39,.14)" stroke-width="1.2"/><path d="M616.9 275.2L658.5 234.6h11.1L628.0 276.3z" fill="rgba(255,255,255,.5)"/><rect x="608.5" y="306.0" width="69.4" height="52.1" rx="3" fill="rgba(186,230,253,0.911201286315918)" stroke="rgba(17,24,39,.14)" stroke-width="1.2"/><path d="M616.9 351.8L658.5 311.2h11.1L628.0 352.8z" fill="rgba(255,255,255,.5)"/><rect x="608.5" y="382.5" width="69.4" height="52.1" rx="3" fill="rgba(186,230,253,0.796601676940918)" stroke="rgba(17,24,39,.14)" stroke-width="1.2"/><path d="M616.9 428.4L658.5 387.7h11.1L628.0 429.4z" fill="rgba(255,255,255,.5)"/><rect x="608.5" y="459.1" width="69.4" height="52.1" rx="3" fill="rgba(186,230,253,0.788642692565918)" stroke="rgba(17,24,39,.14)" stroke-width="1.2"/><rect x="608.5" y="535.7" width="69.4" height="52.1" rx="3" fill="rgba(186,230,253,0.577949333190918)" stroke="rgba(17,24,39,.14)" stroke-width="1.2"/><rect x="702.4" y="152.8" width="69.4" height="52.1" rx="3" fill="rgba(186,230,253,0.8350734472274781)" stroke="rgba(17,24,39,.14)" stroke-width="1.2"/><rect x="702.4" y="229.4" width="69.4" height="52.1" rx="3" fill="rgba(186,230,253,0.5709790229797364)" stroke="rgba(17,24,39,.14)" stroke-width="1.2"/><rect x="702.4" y="306.0" width="69.4" height="52.1" rx="3" fill="rgba(186,230,253,0.6931811094284058)" stroke="rgba(17,24,39,.14)" stroke-width="1.2"/><path d="M710.7 351.8L752.3 311.2h11.1L721.8 352.8z" fill="rgba(255,255,255,.5)"/><rect x="702.4" y="382.5" width="69.4" height="52.1" rx="3" fill="rgba(186,230,253,0.6864045143127442)" stroke="rgba(17,24,39,.14)" stroke-width="1.2"/><path d="M710.7 428.4L752.3 387.7h11.1L721.8 429.4z" fill="rgba(255,255,255,.5)"/><rect x="702.4" y="459.1" width="69.4" height="52.1" rx="3" fill="rgba(186,230,253,0.842501163482666)" stroke="rgba(17,24,39,.14)" stroke-width="1.2"/><path d="M710.7 504.9L752.3 464.3h11.1L721.8 506.0z" fill="rgba(255,255,255,.5)"/><rect x="702.4" y="535.7" width="69.4" height="52.1" rx="3" fill="rgba(186,230,253,0.6869462013244629)" stroke="rgba(17,24,39,.14)" stroke-width="1.2"/>
<path d="M288 84.00000000000001L496 84.00000000000001L496 600 L288 600Z" fill="rgba(255,255,255,.28)"/><rect x="272" y="276" width="240" height="10" rx="5" fill="#facc15"/><rect x="368" y="276" width="9" height="180" rx="4.5" fill="#111827" opacity=".75"/>

<g><rect x="0" y="538" width="800" height="62" fill="rgba(17,24,39,.62)"/><text x="28" y="576" font-family="system-ui, sans-serif" font-size="20" font-weight="600" fill="#ffffff">유리창 청소</text></g>
</svg>